<svg width="1042" height="555" viewBox="0 0 1042 555" fill="none" xmlns="http://www.w3.org/2000/svg">
<rect width="1042" height="555" fill="#E5E5E5" fill-opacity="0.28"/>
<g clip-path="url(#clip0)">
<path d="M583.94 96.82H389.93C386.986 96.82 384.6 99.2063 384.6 102.15V264.82C384.6 267.764 386.986 270.15 389.93 270.15H583.94C586.884 270.15 589.27 267.764 589.27 264.82V102.15C589.27 99.2063 586.884 96.82 583.94 96.82Z" fill="#65617D"/>
<path d="M580.26 108.49H394.26V252.82H580.26V108.49Z" fill="#F8F8FF"/>
<path opacity="0.1" d="M961.48 438.21C960.32 440.71 959.163 443.177 958.01 445.61C956.21 449.39 954.433 453.097 952.68 456.73C951.9 458.34 951.12 459.92 950.36 461.5C941.76 479.07 933.73 494.61 926.91 507.39C920.722 518.97 911.533 528.672 900.306 535.481C889.08 542.29 876.229 545.954 863.1 546.09L711.45 547.74H709.85L696.85 547.88L685.73 548L651.63 548.37H650.25L632.89 548.56H632.36L525.36 549.72L429.85 550.72L418.74 550.84L349.74 551.59H349.66L304.91 552.07H304.43L162.93 553.6L120.6 554.06C111.567 554.162 102.571 552.874 93.93 550.24C78.8921 545.698 65.3774 537.141 54.84 525.49C36.66 505.46 23.41 482.09 14.51 456.73C13.2233 453.07 12.0233 449.363 10.91 445.61C-19.9 341.46 17.66 207.09 85.26 117.17C88.0933 113.41 90.9733 109.743 93.9 106.17L93.97 106.09C114.76 80.57 138.07 59.25 162.9 44.09C206.9 17.18 255.65 9.60001 303.6 32.19C344.17 51.31 382.05 60.3 418.77 62.74C422.48 62.98 426.19 63.16 429.88 63.27C514.11 65.92 593.05 35.57 685.75 15.98C689.44 15.2 693.14 14.43 696.87 13.7C763 0.540001 836.36 -6.39999 923.6 8.19001C932.664 9.67067 941.607 11.8097 950.36 14.59C954.207 15.83 957.913 17.1633 961.48 18.59C1003.12 35.53 1025.83 66.83 1035.48 106.05C1036.39 109.69 1037.18 113.393 1037.85 117.16C1054.96 211.5 1004.85 345.32 961.48 438.21Z" fill="#6C63FF"/>
<g opacity="0.1">
<path opacity="0.1" d="M162.9 44.09V553.71L120.57 554.17C111.537 554.272 102.541 552.984 93.9 550.35V106.09H93.97C114.76 80.54 138.07 59.22 162.9 44.09Z" fill="#6C63FF"/>
<path opacity="0.1" d="M1037.9 117.17H85.26C88.0933 113.41 90.9733 109.743 93.9 106.17V106.09H1035.53C1036.44 109.71 1037.23 113.403 1037.9 117.17Z" fill="#6C63FF"/>
<path opacity="0.1" d="M961.48 18.6V445.6H958.01C956.21 449.38 954.433 453.087 952.68 456.72C951.9 458.33 951.12 459.91 950.36 461.49V14.56C954.207 15.8 957.913 17.1467 961.48 18.6Z" fill="#6C63FF"/>
<path opacity="0.1" d="M696.87 13.67V547.92L685.75 548.04V15.95C689.44 15.17 693.14 14.4 696.87 13.67Z" fill="#6C63FF"/>
<path opacity="0.1" d="M429.88 63.24V550.82L418.77 550.94V62.71C422.48 62.95 426.19 63.09 429.88 63.24Z" fill="#6C63FF"/>
<path opacity="0.1" d="M958.01 445.61C956.21 449.39 954.433 453.097 952.68 456.73H14.51C13.2233 453.07 12.0233 449.363 10.91 445.61H958.01Z" fill="#6C63FF"/>
</g>
<path d="M230.6 265.83H211.6V323.49H230.6V265.83Z" fill="#3F3D56"/>
<path d="M741.93 262.83H722.93V323.83H741.93V262.83Z" fill="#3F3D56"/>
<path d="M863.1 533.65V546.65L711.18 548.05L709.56 548.08L651.82 548.61L650.44 548.63L632.89 548.78H632.37L525.39 549.77L349.78 551.4H349.63L304.98 551.82L304.5 551.83L106.1 553.65V538.65L152.75 510.65L246.35 509.87L248.35 509.86L249.01 509.85L251.01 509.82L295.95 509.45L297.96 509.44L298.6 509.43L300.6 509.42L315.01 509.3L315.39 509.29L350.94 508.99H351.23L628.63 506.65L635.42 506.6H636.1L641.28 506.55L678.93 506.24L680.93 506.21L682.78 506.19H683.74L695.45 506.1L697.77 506.07L700.88 506.05L710.63 505.96L726.1 505.83L728.1 505.81L731.58 505.79H732.23L806.94 505.15L863.1 533.65Z" fill="#65617D"/>
<path opacity="0.2" d="M863.1 533.65V546.65L711.18 548.05L709.56 548.08L651.82 548.61L650.44 548.63L632.89 548.78H632.37L525.39 549.77L349.78 551.4H349.63L304.98 551.82L304.5 551.83L106.1 553.65V538.65L152.75 510.65L246.35 509.87L248.35 509.86L249.01 509.85L251.01 509.82L295.95 509.45L297.96 509.44L298.6 509.43L300.6 509.42L315.01 509.3L315.39 509.29L350.94 508.99H351.23L628.63 506.65L635.42 506.6H636.1L641.28 506.55L678.93 506.24L680.93 506.21L682.78 506.19H683.74L695.45 506.1L697.77 506.07L700.88 506.05L710.63 505.96L726.1 505.83L728.1 505.81L731.58 505.79H732.23L806.94 505.15L863.1 533.65Z" fill="#808080" fill-opacity="0.19"/>
<path d="M296.1 483.66V508.15C296.101 509.31 295.772 510.446 295.152 511.427C294.533 512.408 293.648 513.192 292.6 513.69C291.82 514.068 290.967 514.273 290.1 514.29L255.2 515.03C254.268 515.052 253.343 514.857 252.5 514.46C251.434 513.971 250.53 513.186 249.897 512.199C249.265 511.211 248.929 510.063 248.93 508.89V483.66H296.1Z" fill="#3F3D56"/>
<path opacity="0.1" d="M296.1 483.66V508.15C296.101 509.31 295.772 510.446 295.152 511.427C294.533 512.408 293.648 513.192 292.6 513.69C291.82 514.068 290.967 514.273 290.1 514.29L255.2 515.03C254.268 515.052 253.343 514.857 252.5 514.46C251.434 513.971 250.53 513.186 249.897 512.199C249.265 511.211 248.929 510.063 248.93 508.89V483.66H296.1Z" fill="#808080" fill-opacity="0.19"/>
<path d="M298.1 483.66V508.15C298.101 509.31 297.772 510.446 297.152 511.427C296.533 512.408 295.648 513.192 294.6 513.69C293.82 514.068 292.967 514.273 292.1 514.29L257.2 515.03C256.268 515.052 255.343 514.857 254.5 514.46C253.434 513.971 252.53 513.186 251.897 512.199C251.265 511.211 250.929 510.063 250.93 508.89V483.66H298.1Z" fill="#3F3D56"/>
<path d="M728.1 483.66H680.93V515.16H728.1V483.66Z" fill="#3F3D56"/>
<path opacity="0.1" d="M728.1 483.66H680.93V515.16H728.1V483.66Z" fill="#808080" fill-opacity="0.19"/>
<path d="M726.1 483.66H678.93V515.16H726.1V483.66Z" fill="#3F3D56"/>
<path opacity="0.1" d="M230.6 265.82V271.55L211.6 271.06V265.82H230.6Z" fill="#808080" fill-opacity="0.19"/>
<path d="M355.66 107.4L332.83 271.4C332.685 272.448 332.16 273.405 331.353 274.089C330.547 274.774 329.517 275.137 328.46 275.11L145.66 270.37L142.19 270.28C141.586 270.266 140.991 270.124 140.446 269.865C139.9 269.605 139.415 269.234 139.022 268.774C138.63 268.315 138.339 267.777 138.168 267.198C137.997 266.618 137.95 266.009 138.03 265.41L163.66 93.73C163.825 92.6666 164.383 91.7037 165.224 91.0317C166.064 90.3596 167.126 90.0272 168.2 90.1L351.66 102.52C352.252 102.554 352.83 102.711 353.359 102.98C353.887 103.249 354.354 103.625 354.73 104.083C355.105 104.542 355.382 105.073 355.542 105.644C355.702 106.215 355.743 106.813 355.66 107.4V107.4Z" fill="#65617D"/>
<path d="M175.93 99.16L156.6 250.49L324.6 255.82L345.26 109.82L175.93 99.16Z" fill="#FBFBFF"/>
<path opacity="0.1" d="M741.93 262.82V266.61L722.93 267V262.82H741.93Z" fill="#808080" fill-opacity="0.19"/>
<path d="M827.66 259.62C827.687 260.034 827.63 260.45 827.492 260.842C827.355 261.233 827.139 261.593 826.859 261.9C826.579 262.206 826.24 262.453 825.862 262.624C825.484 262.796 825.075 262.89 824.66 262.9L637.46 266.77C636.682 266.786 635.927 266.507 635.347 265.99C634.766 265.472 634.403 264.754 634.33 263.98L618.24 96.7C618.2 96.285 618.245 95.8662 618.372 95.4691C618.499 95.072 618.705 94.7047 618.978 94.3896C619.251 94.0745 619.585 93.8181 619.96 93.636C620.335 93.4539 620.744 93.3498 621.16 93.33L806.94 84.09L808.94 83.99C809.735 83.9481 810.515 84.2167 811.116 84.7391C811.717 85.2615 812.091 85.9969 812.16 86.79L827.66 259.62Z" fill="#65617D"/>
<path d="M628.93 103.16L798.6 94.82L812.93 246.82L644.6 250.82L628.93 103.16Z" fill="white"/>
<rect x="665.698" y="108" width="27" height="24" transform="rotate(1.66775 665.698 108)" fill="#C4C4C4"/>
<path opacity="0.1" d="M827.66 259.62C827.687 260.034 827.63 260.45 827.492 260.842C827.355 261.233 827.139 261.593 826.859 261.9C826.579 262.206 826.24 262.453 825.862 262.624C825.484 262.796 825.075 262.89 824.66 262.9L806.94 84.09L808.94 83.99C809.735 83.9481 810.515 84.2167 811.116 84.7391C811.717 85.2615 812.091 85.9969 812.16 86.79L827.66 259.62Z" fill="#808080" fill-opacity="0.19"/>
<path opacity="0.1" d="M168.23 87.09L145.66 267.37L142.19 267.28C141.586 267.266 140.991 267.124 140.446 266.865C139.9 266.605 139.415 266.234 139.022 265.774C138.63 265.315 138.339 264.777 138.168 264.198C137.997 263.618 137.95 263.009 138.03 262.41L163.66 90.73C163.823 89.6592 164.385 88.6895 165.232 88.0147C166.079 87.3398 167.15 87.0096 168.23 87.09V87.09Z" fill="#808080" fill-opacity="0.19"/>
<path opacity="0.1" d="M230.6 306.41H211.6V323.49H230.6V306.41Z" fill="#808080" fill-opacity="0.19"/>
<path opacity="0.1" d="M298.1 483.65V488.62L250.93 489.88V483.65H298.1Z" fill="#808080" fill-opacity="0.19"/>
<path d="M381.35 312.36V480.56C381.338 481.587 380.931 482.569 380.215 483.305C379.498 484.04 378.526 484.472 377.5 484.51L185.85 489.61H185.8C184.756 489.597 183.759 489.177 183.021 488.439C182.283 487.701 181.863 486.704 181.85 485.66V312.36C181.863 311.316 182.283 310.319 183.021 309.581C183.759 308.843 184.756 308.423 185.8 308.41H377.4C378.444 308.423 379.441 308.843 380.179 309.581C380.917 310.319 381.337 311.316 381.35 312.36V312.36Z" fill="#65617D"/>
<path opacity="0.1" d="M185.85 308.41V489.61H185.8C184.756 489.597 183.759 489.177 183.021 488.439C182.283 487.701 181.863 486.704 181.85 485.66V312.36C181.863 311.316 182.283 310.319 183.021 309.581C183.759 308.843 184.756 308.423 185.8 308.41H185.85Z" fill="#808080" fill-opacity="0.19"/>
<path d="M194.6 319.15H372.1V467.4L194.6 471.4V319.15Z" fill="#D4DFEC"/>
<path d="M661 220L762.61 219" stroke="#6C63FF" stroke-width="2" stroke-miterlimit="10"/>
<path opacity="0.1" d="M741.93 306.41H722.93V323.83H741.93V306.41Z" fill="#808080" fill-opacity="0.19"/>
<path opacity="0.1" d="M726.1 483.65V490.06L678.93 488.8V483.65H726.1Z" fill="#808080" fill-opacity="0.19"/>
<path d="M788.35 312.36V485.66C788.337 486.712 787.91 487.717 787.161 488.456C786.412 489.196 785.402 489.61 784.35 489.61V489.61L592.66 484.51C591.634 484.472 590.662 484.04 589.945 483.305C589.229 482.569 588.822 481.587 588.81 480.56V312.36C588.823 311.316 589.243 310.319 589.981 309.581C590.719 308.843 591.716 308.423 592.76 308.41H784.36C785.411 308.413 786.418 308.828 787.164 309.567C787.911 310.306 788.337 311.31 788.35 312.36V312.36Z" fill="#65617D"/>
<path opacity="0.1" d="M788.35 312.36V485.66C788.337 486.712 787.91 487.717 787.161 488.456C786.412 489.196 785.402 489.61 784.35 489.61V489.61V308.41C785.402 308.41 786.412 308.824 787.161 309.564C787.91 310.303 788.337 311.308 788.35 312.36Z" fill="#808080" fill-opacity="0.19"/>
<path d="M775.6 319.15H598.1V467.4L775.6 471.4V319.15Z" fill="#D4DFEC"/>
<path d="M583.85 312.36V480.56C583.838 481.587 583.431 482.569 582.715 483.305C581.998 484.04 581.026 484.472 580 484.51L388.35 489.61C387.298 489.61 386.288 489.196 385.539 488.456C384.79 487.717 384.363 486.712 384.35 485.66V312.36C384.363 311.316 384.783 310.319 385.521 309.581C386.259 308.843 387.256 308.423 388.3 308.41H579.9C580.944 308.423 581.941 308.843 582.679 309.581C583.417 310.319 583.837 311.316 583.85 312.36V312.36Z" fill="#65617D"/>
<path d="M397.1 319.15H574.6V467.4L397.1 471.4V319.15Z" fill="#D4DFEC"/>
<path opacity="0.1" d="M863.1 533.65V546.65L711.18 548.05L709.56 548.08L651.82 548.61L650.44 548.63L632.89 548.78H632.37L525.39 549.77L349.78 551.4H349.63L304.98 551.82L304.5 551.83L106.1 553.65V538.65L308.61 537.32H309.09L350.08 537.04H350.27L633.35 535.17H633.64L633.81 535.16H634.28L639.07 535.13H640.53L715.02 534.63L719.42 534.61L720.4 534.6L863.1 533.65Z" fill="#808080" fill-opacity="0.19"/>
<path d="M487.26 323.49C515.609 323.49 538.59 300.509 538.59 272.16C538.59 243.811 515.609 220.83 487.26 220.83C458.911 220.83 435.93 243.811 435.93 272.16C435.93 300.509 458.911 323.49 487.26 323.49Z" fill="#FBBEBE"/>
<path d="M538.6 377.16C538.6 377.16 439.1 389.16 448.6 377.16C452.04 372.82 452.99 359.96 452.8 345.31C452.74 340.86 452.58 336.25 452.35 331.66C451.25 309.66 448.6 288.16 448.6 288.16C448.6 288.16 535.6 247.16 525.6 279.66C521.6 292.79 522.91 311.23 525.95 328.54C526.84 333.59 527.87 338.54 528.95 343.24C531.586 354.704 534.807 366.025 538.6 377.16V377.16Z" fill="#FBBEBE"/>
<path opacity="0.1" d="M538.6 377.16C538.6 377.16 439.1 389.16 448.6 377.16C452.04 372.82 452.99 359.96 452.8 345.31C467.97 338.83 487.27 343.66 487.27 343.66C507.59 339.61 520.62 340.4 528.95 343.24C531.586 354.704 534.807 366.025 538.6 377.16V377.16Z" fill="#808080" fill-opacity="0.19"/>
<path d="M349.74 552.53V551.69L525.36 549.78L632.36 548.78H632.66L632.55 550.26L632.7 548.78H632.89V548.61L634.26 535.16L634.78 530.07L634.94 528.48L635.08 527.15L641.26 506.54L647.44 485.96L652.64 468.63L660.58 442.15C660.58 442.15 656.08 431.65 653.58 428.65C651.08 425.65 648.58 405.15 648.58 405.15C648.58 405.15 627.24 384.82 617.91 382.48C614 381.48 606.28 380.15 598.08 378.48C595.01 377.86 591.86 377.2 588.83 376.48C587.12 376.09 585.44 375.68 583.83 375.27C580.696 374.487 577.608 373.533 574.58 372.41C572.992 371.833 571.481 371.064 570.08 370.12C562.73 364.73 544.31 364.12 543.6 364.12C543.598 364.097 543.598 364.073 543.6 364.05V363.96C543.626 363.54 543.626 363.12 543.6 362.7C543.6 362.3 543.6 361.83 543.51 361.3C543.51 361.14 543.51 360.97 543.44 360.8C543.39 360.44 543.33 360.06 543.24 359.66C543.21 359.481 543.17 359.304 543.12 359.13C542.83 357.925 542.411 356.755 541.87 355.64C541.8 355.48 541.71 355.31 541.63 355.15C541.14 354.226 540.571 353.346 539.93 352.52C539.8 352.35 539.66 352.17 539.51 352C538.691 351.034 537.78 350.15 536.79 349.36C536.52 349.15 536.24 348.93 535.95 348.73C535.788 348.599 535.618 348.479 535.44 348.37L534.55 347.79L533.72 347.31C532.99 346.91 532.22 346.52 531.38 346.15C531.12 346.03 530.84 345.92 530.56 345.81C530.28 345.7 529.84 345.53 529.47 345.39H529.41L528.66 345.09C528.09 344.9 527.51 344.73 526.9 344.56L525.97 344.32L524.97 344.09L523.97 343.88C522.97 343.68 521.9 343.5 520.78 343.36L519.64 343.22L518.47 343.1L517.26 343L515.54 342.9L513.54 342.83C504.719 342.829 495.923 343.764 487.3 345.62C481.309 344.287 475.173 343.722 469.04 343.94H468.17L467.17 344H466.53L465.24 344.12C464.81 344.12 464.37 344.21 463.94 344.27C463.51 344.33 463.06 344.38 462.63 344.45L461.97 344.56C461.32 344.67 460.66 344.79 459.97 344.93C459.75 344.97 459.53 345.02 459.31 345.08C458.44 345.27 457.57 345.5 456.71 345.76C456.28 345.88 455.85 346.02 455.42 346.17C455.2 346.23 454.99 346.31 454.78 346.39L454.14 346.62L453.51 346.87L452.76 347.17C452.38 347.33 452.01 347.5 451.64 347.68C451.43 347.77 451.22 347.87 451.02 347.98C450.82 348.09 450.61 348.18 450.42 348.29C448.159 349.458 446.069 350.932 444.21 352.67L443.7 353.16L443.2 353.67C443.03 353.84 442.87 354.02 442.71 354.2C442.058 354.912 441.45 355.664 440.89 356.45C440.73 356.66 440.58 356.87 440.43 357.09C439.795 358.026 439.221 359.001 438.71 360.01C438.58 360.25 438.46 360.5 438.34 360.74C437.524 362.429 436.855 364.186 436.34 365.99C436.153 366.657 435.983 367.323 435.83 367.99C435.83 367.99 414.66 377.33 397.1 384.09C392.43 385.89 388.03 387.52 384.35 388.75C383.28 389.11 382.28 389.44 381.35 389.75C379.332 390.479 377.234 390.963 375.1 391.19C374.094 391.206 373.091 391.3 372.1 391.47C364.03 392.78 350.2 398.47 348.69 404.18C348.567 404.636 348.533 405.111 348.59 405.58C348.59 405.58 348.59 405.65 348.59 405.69C349.59 412.69 342.59 411.69 342.59 411.69C342.59 411.69 340.09 430.19 336.59 435.19C334.06 438.79 332.33 446.82 332.11 452.88C331.984 454.768 332.132 456.664 332.55 458.51C332.55 458.56 332.55 458.61 332.55 458.65C332.95 459.99 331.99 463.65 330.36 468.34C328.59 473.49 326.01 479.89 323.53 485.93C319.79 495.05 316.27 503.33 316.05 505.15C315.96 505.96 315.7 507.41 315.34 509.28C313.88 516.9 310.64 531.41 309.04 537.28C307.85 541.66 306.12 547.66 304.93 551.78C304.93 551.9 304.86 552.02 304.83 552.13L349.66 551.69V552.53H349.8H349.74Z" fill="#6C63FF"/>
<path opacity="0.1" d="M366.1 434.66C366.1 434.66 423.1 464.16 443.6 460.66L366.1 434.66Z" fill="#808080" fill-opacity="0.19"/>
<path opacity="0.1" d="M482.1 422.66C482.1 422.66 537.6 440.66 556.1 443.16C574.6 445.66 482.1 422.66 482.1 422.66Z" fill="#808080" fill-opacity="0.19"/>
<path opacity="0.1" d="M543.66 364.74C514.66 370.08 460.06 368.93 436.46 368.12C445.11 337.12 487.29 347.66 487.29 347.66C539.5 337.24 543.5 358.86 543.66 364.74Z" fill="#808080" fill-opacity="0.19"/>
<path d="M543.66 362.74C514.66 368.08 460.06 366.93 436.46 366.12C445.11 335.12 487.29 345.66 487.29 345.66C539.5 335.24 543.5 356.86 543.66 362.74Z" fill="#6C63FF"/>
<path d="M697.6 499.41C697.6 499.41 731.76 494.16 732.43 509.16C733.1 524.16 715.01 534.64 715.01 534.64L697.6 499.41Z" fill="#FBBEBE"/>
<path opacity="0.1" d="M525.95 328.54C524.481 329.197 522.979 329.777 521.45 330.28C510.67 334 499.8 337.75 488.45 339.11C477.1 340.47 465.19 339.27 455.29 333.61C454.251 333.023 453.249 332.372 452.29 331.66C451.19 309.66 448.54 288.16 448.54 288.16C448.54 288.16 535.54 247.16 525.54 279.66C521.56 292.79 522.91 311.23 525.95 328.54Z" fill="#808080" fill-opacity="0.19"/>
<path d="M473.18 191.93C471.753 192.307 470.257 192.345 468.813 192.041C467.368 191.737 466.014 191.1 464.86 190.18L466.94 193.07C465.714 193.211 464.472 193.083 463.301 192.695C462.13 192.306 461.058 191.666 460.16 190.82C459.971 193.407 460.079 196.007 460.48 198.57C457.038 198.736 453.65 197.673 450.92 195.57C450.867 196.472 451.091 197.369 451.563 198.14C452.035 198.91 452.732 199.518 453.56 199.88C450.103 199.467 446.613 200.326 443.743 202.297C440.872 204.267 438.817 207.215 437.96 210.59L443.18 211.07C439.078 211.946 435.396 214.193 432.74 217.44C431.14 219.44 429.92 222 430.62 224.44C431.32 226.88 434.7 228.44 436.54 226.7C433.923 229.824 432.02 233.483 430.967 237.42C429.913 241.357 429.733 245.476 430.44 249.49C430.915 251.2 431.071 252.983 430.9 254.75C430.57 256.4 429.53 257.83 429.01 259.44C428.01 262.36 428.96 265.53 429.85 268.44L434.54 283.86C436.24 289.43 437.93 295.01 440.15 300.4C441.722 303.808 443.059 307.319 444.15 310.91C445.41 315.75 445.46 321.05 448.15 325.28C449.994 327.942 452.458 330.115 455.33 331.61C465.22 337.27 477.17 338.47 488.49 337.11C499.81 335.75 510.67 332 521.44 328.28C523.833 327.559 526.129 326.552 528.28 325.28C535.73 320.4 537.39 310.42 538.78 301.63C540.33 291.83 542.4 282.05 546.07 272.83C548.25 267.34 551.07 261.77 550.59 255.89C549.98 248.08 543.8 241.75 542.27 234.07C541.758 231.503 541.782 228.858 542.34 226.3C542.814 224.776 543.08 223.195 543.13 221.6C542.96 218.38 540.32 215.9 537.84 213.83C532.46 209.337 526.907 205.09 521.18 201.09C520.89 199.09 523.61 198.23 524.84 196.65C526.58 194.42 524.78 190.88 522.14 189.84C519.5 188.8 516.54 189.48 513.79 190.17C513.969 188.762 513.689 187.335 512.992 186.099C512.294 184.863 511.217 183.885 509.919 183.311C508.621 182.737 507.173 182.597 505.79 182.912C504.406 183.227 503.161 183.981 502.24 185.06C501.51 183.385 500.343 181.938 498.862 180.868C497.381 179.799 495.639 179.147 493.82 178.98C487.19 178.46 487.06 183.53 482.82 186.32C478.58 189.11 475.08 185.43 471.82 182.75C471.221 184.265 471.031 185.911 471.27 187.522C471.509 189.134 472.168 190.654 473.18 191.93V191.93Z" fill="#3F3D56"/>
<path d="M722.93 529.41C722.93 529.41 722.04 531.53 720.4 534.6C717.919 539.323 714.899 543.743 711.4 547.77L711.13 548.06H709.51L651.77 548.59H650.39L650.22 548.39L639.02 535.1L634.8 530.09L634.63 529.88L634.27 529.46L634.07 529.22L633.81 528.91L625.6 519.17L628.6 506.67L633.71 485.61L633.84 485.1L634.84 481.1L635.55 478.1L637.93 468.32L646.09 434.67L660.59 442.17L675.88 469.17L684.09 483.67H688.59C689.44 483.67 691.39 485.31 693.35 487.2C694.05 487.87 694.75 488.58 695.35 489.2C697.13 491.04 698.54 492.62 698.54 492.62C698.54 492.62 705.83 492.78 707.79 498.52C707.891 498.798 707.975 499.082 708.04 499.37C708.691 501.626 709.537 503.821 710.57 505.93C711.86 508.74 713.48 511.93 715.12 515.12C718.17 520.97 721.27 526.54 722.41 528.56L722.55 528.81L722.93 529.41Z" fill="#6C63FF"/>
<path opacity="0.1" d="M637.03 484.26L636.93 485.69V485.79L636.76 488.09L635.43 506.6L633.82 528.9L633.36 535.18L632.36 548.62V548.79L525.36 549.79L349.77 551.69V552.53H349.63V551.69V551.41L350.08 537.05L350.94 508.99L351.68 485.2L351.75 482.83C351.794 481.4 352.129 479.993 352.734 478.696C353.34 477.4 354.203 476.24 355.272 475.288C356.341 474.336 357.592 473.612 358.95 473.161C360.308 472.709 361.744 472.538 363.17 472.66C367.89 473.06 374.02 473.55 381.35 474.07L384.35 474.29C426.68 477.23 504.91 481.03 583.85 476.29C585.51 476.2 587.18 476.1 588.85 475.98C601.09 475.21 613.32 474.22 625.43 472.98C626.961 472.82 628.508 472.997 629.963 473.499C631.418 474.001 632.746 474.817 633.851 475.887C634.957 476.958 635.815 478.258 636.364 479.696C636.913 481.134 637.141 482.675 637.03 484.21V484.26Z" fill="#808080" fill-opacity="0.19"/>
<path d="M349.74 552.53V551.69L525.36 549.78L632.36 548.78H632.66V548.61L633.66 535.17L634.09 529.17L635.73 506.56L637.02 488.66V488.22C637.08 487.395 637.043 486.566 636.91 485.75C636.916 485.717 636.916 485.683 636.91 485.65C636.635 483.962 635.948 482.369 634.91 481.01C633.809 479.598 632.366 478.49 630.718 477.79C629.07 477.09 627.271 476.822 625.49 477.01C613.38 478.25 601.15 479.24 588.91 480.01C587.24 480.13 585.57 480.23 583.91 480.32C504.97 485.01 426.74 481.21 384.41 478.32L381.41 478.1C374.08 477.58 367.95 477.1 363.23 476.69C360.633 476.471 358.048 477.221 355.972 478.797C353.896 480.372 352.478 482.66 351.99 485.22C351.889 485.761 351.829 486.31 351.81 486.86L351.13 509.02L350.2 537.09L349.76 551.45V551.73V552.57L349.74 552.53Z" fill="#3F3D56"/>
<path opacity="0.1" d="M637.33 491.27L636.1 506.6L634.27 529.45L633.81 535.17L632.81 547.98L632.75 548.62V548.79L632.6 550.27L632.71 548.79H632.42L525.42 549.79L349.77 551.69V551.41L350.26 537.05L351.26 508.99L351.9 490.34C351.931 489.279 352.228 488.243 352.762 487.326C353.297 486.409 354.052 485.64 354.96 485.09C356.092 484.396 357.416 484.081 358.74 484.19C360.84 484.36 363.42 484.56 366.43 484.78C371.32 485.14 377.35 485.56 384.37 486C397.37 486.82 413.68 487.7 432.37 488.42C484.37 490.42 554.57 491.09 621.25 485.25C624.25 484.99 627.35 484.7 630.38 484.41C631.579 484.29 632.788 484.52 633.86 485.07C634.164 485.221 634.452 485.402 634.72 485.61C635.591 486.241 636.28 487.089 636.72 488.07C636.822 488.265 636.906 488.469 636.97 488.68C637.27 489.509 637.393 490.391 637.33 491.27V491.27Z" fill="#808080" fill-opacity="0.19"/>
<path opacity="0.1" d="M298.1 504.96V508.15C298.101 509.31 297.772 510.446 297.152 511.427C296.533 512.408 295.648 513.192 294.6 513.69L254.5 514.46C253.434 513.971 252.53 513.186 251.897 512.199C251.265 511.211 250.929 510.063 250.93 508.89V505.89L298.1 504.96Z" fill="#808080" fill-opacity="0.19"/>
<path d="M298.6 515.57L246.35 516.57V507.9L298.6 506.9V515.57Z" fill="#3F3D56"/>
<path opacity="0.1" d="M298.6 515.57L246.35 516.57V507.9L298.6 506.9V515.57Z" fill="#808080" fill-opacity="0.19"/>
<path d="M300.6 515.57L248.35 516.57V507.9L300.6 506.9V515.57Z" fill="#3F3D56"/>
<g opacity="0.1">
<path opacity="0.1" d="M473.59 188.65C472.613 187.381 471.964 185.89 471.7 184.31C471.459 185.855 471.603 187.435 472.12 188.91C472.616 188.864 473.108 188.777 473.59 188.65Z" fill="#808080" fill-opacity="0.19"/>
<path opacity="0.1" d="M460.89 195.29C460.701 194.064 460.578 192.829 460.52 191.59C460.52 192.82 460.52 194.06 460.52 195.3L460.89 195.29Z" fill="#808080" fill-opacity="0.19"/>
<path opacity="0.1" d="M542.39 228.66C542.445 227.769 542.566 226.883 542.75 226.01C543.223 224.489 543.492 222.912 543.55 221.32C543.528 220.963 543.474 220.608 543.39 220.26C543.22 221.18 542.95 222.1 542.75 223.01C542.351 224.865 542.229 226.769 542.39 228.66Z" fill="#808080" fill-opacity="0.19"/>
<path opacity="0.1" d="M521.59 197.76L522.68 198.55C523.599 197.885 524.459 197.143 525.25 196.33C525.626 195.81 525.859 195.199 525.926 194.561C525.993 193.922 525.891 193.277 525.63 192.69C525.53 192.918 525.403 193.133 525.25 193.33C524.02 194.91 521.3 195.78 521.59 197.76Z" fill="#808080" fill-opacity="0.19"/>
<path opacity="0.1" d="M439.42 207.38C439.055 208.109 438.764 208.873 438.55 209.66C440.114 208.787 441.799 208.15 443.55 207.77L439.42 207.38Z" fill="#808080" fill-opacity="0.19"/>
<path opacity="0.1" d="M453.21 196.5C452.553 196.138 451.925 195.727 451.33 195.27C451.305 195.666 451.335 196.063 451.42 196.45C452.017 196.422 452.615 196.438 453.21 196.5V196.5Z" fill="#808080" fill-opacity="0.19"/>
<path opacity="0.1" d="M550.98 255.42C550.57 260.27 548.31 264.94 546.48 269.54C542.81 278.76 540.74 288.54 539.19 298.35C537.8 307.14 536.19 317.12 528.69 321.99C526.547 323.27 524.253 324.278 521.86 324.99C511.08 328.72 500.21 332.46 488.86 333.82C477.51 335.18 465.6 333.99 455.7 328.33C452.83 326.832 450.366 324.66 448.52 322C445.85 317.77 445.8 312.47 444.52 307.63C443.429 304.036 442.092 300.521 440.52 297.11C438.31 291.73 436.61 286.11 434.92 280.58C433.353 275.44 431.79 270.297 430.23 265.15C429.716 263.602 429.335 262.013 429.09 260.4C428.7 262.96 429.46 265.64 430.23 268.15C431.79 273.303 433.353 278.447 434.92 283.58C436.61 289.15 438.31 294.73 440.52 300.11C442.092 303.521 443.429 307.036 444.52 310.63C445.78 315.47 445.83 320.77 448.52 325C450.366 327.66 452.83 329.832 455.7 331.33C465.6 336.99 477.54 338.18 488.86 336.82C500.18 335.46 511.04 331.72 521.86 327.99C524.253 327.278 526.547 326.27 528.69 324.99C536.14 320.12 537.8 310.14 539.19 301.35C540.74 291.54 542.81 281.76 546.48 272.54C548.66 267.06 551.48 261.49 551 255.6C551 255.54 550.98 255.48 550.98 255.42Z" fill="#808080" fill-opacity="0.19"/>
<path opacity="0.1" d="M431.29 251.55C431.29 251.55 431.29 251.48 431.29 251.44C431.47 249.677 431.314 247.895 430.83 246.19C430.631 245.093 430.5 243.984 430.44 242.87C430.325 244.985 430.456 247.106 430.83 249.19C430.99 249.97 431.17 250.76 431.29 251.55Z" fill="#808080" fill-opacity="0.19"/>
<path opacity="0.1" d="M434.34 227.09C435.109 225.798 435.982 224.571 436.95 223.42C435.12 225.17 431.74 223.61 431.03 221.18C430.768 222.163 430.768 223.197 431.03 224.18C431.276 224.914 431.712 225.569 432.293 226.08C432.875 226.592 433.581 226.94 434.34 227.09V227.09Z" fill="#808080" fill-opacity="0.19"/>
</g>
<path opacity="0.1" d="M684.1 483.66C684.1 483.66 687.27 495.16 684.1 505.16C680.93 515.16 684.1 483.66 684.1 483.66Z" fill="#808080" fill-opacity="0.19"/>
<path opacity="0.1" d="M697.6 495.39C697.6 495.39 698.93 509.99 695.93 512.58C692.93 515.17 697.6 495.39 697.6 495.39Z" fill="#808080" fill-opacity="0.19"/>
<path d="M198.99 342.86L300.6 341.86" stroke="#6C63FF" stroke-width="2" stroke-miterlimit="10"/>
<path d="M198.99 355.33L300.6 354.34" stroke="#6C63FF" stroke-width="2" stroke-miterlimit="10"/>
<path d="M198.99 367.81L300.6 366.81" stroke="#6C63FF" stroke-width="2" stroke-miterlimit="10"/>
<path d="M181.414 116.849L194.681 125.475L193.802 129.984L176.683 117.599L177.337 114.24L197.85 109.211L196.971 113.72L181.414 116.849Z" fill="#050772"/>
<path d="M330.486 128.634L316.58 121.082L317.1 116.518L335.143 127.514L334.756 130.914L314.704 137.546L315.224 132.981L330.486 128.634Z" fill="#050772"/>
<path d="M230.101 132.781L226.91 132.495L227.907 121.367L215.77 120.279L214.773 131.407L211.598 131.123L213.756 107.047L216.931 107.332L216.003 117.683L228.14 118.771L229.068 108.42L232.259 108.706L230.101 132.781ZM253.802 113.271L246.064 112.577L244.139 134.04L240.981 133.757L242.905 112.294L235.183 111.602L235.418 108.989L254.036 110.658L253.802 113.271ZM261.709 111.346L267.818 131.696L277.45 112.757L281.567 113.126L279.409 137.202L276.234 136.917L277.075 127.542L278.28 117.449L268.628 136.235L266.197 136.017L260.053 115.865L259.465 125.963L258.624 135.338L255.45 135.054L257.608 110.979L261.709 111.346ZM288.439 135.394L299.848 136.417L299.615 139.013L285.015 137.704L287.173 113.629L290.364 113.915L288.439 135.394Z" fill="#EA4949"/>
<path d="M186.135 147.435L190.258 149.509L190.149 150.844L184.788 147.804L184.87 146.809L190.654 144.692L190.544 146.027L186.135 147.435ZM184.825 163.381L188.948 165.455L188.839 166.79L183.478 163.75L183.56 162.756L189.344 160.638L189.234 161.974L184.825 163.381Z" fill="#2D2AC9"/>
<path d="M193.822 145.96C194.437 145.32 195.192 145.037 196.086 145.111C197.644 145.239 198.358 146.182 198.227 147.941L197.827 152.812L196.566 152.709L196.967 147.831C197.006 147.299 196.916 146.896 196.696 146.622C196.481 146.348 196.121 146.19 195.617 146.149C195.208 146.115 194.84 146.195 194.514 146.388C194.187 146.58 193.923 146.847 193.721 147.187L193.289 152.44L192.029 152.336L192.889 141.871L194.149 141.975L193.822 145.96ZM202.176 143.951L202.03 145.736L203.406 145.849L203.326 146.823L201.95 146.71L201.574 151.282C201.55 151.577 201.593 151.805 201.703 151.965C201.814 152.12 202.017 152.21 202.312 152.234C202.457 152.246 202.659 152.235 202.918 152.202L202.834 153.224C202.495 153.287 202.169 153.306 201.856 153.28C201.293 153.234 200.882 153.029 200.624 152.665C200.365 152.301 200.262 151.805 200.314 151.178L200.689 146.607L199.347 146.497L199.427 145.522L200.769 145.633L200.916 143.848L202.176 143.951ZM206.07 146.068L206.037 146.888C206.629 146.297 207.384 146.039 208.302 146.114C209.333 146.199 210.002 146.652 210.31 147.473C210.584 147.139 210.926 146.878 211.334 146.693C211.747 146.507 212.222 146.436 212.758 146.48C214.375 146.613 215.126 147.537 215.013 149.251L214.607 154.191L213.347 154.087L213.746 149.223C213.79 148.696 213.702 148.293 213.482 148.014C213.263 147.731 212.87 147.566 212.302 147.52C211.834 147.481 211.434 147.59 211.102 147.846C210.771 148.098 210.56 148.458 210.472 148.926L210.07 153.818L208.803 153.714L209.199 148.884C209.287 147.812 208.807 147.233 207.758 147.146C206.931 147.078 206.337 147.384 205.974 148.063L205.532 153.445L204.272 153.342L204.877 145.97L206.07 146.068ZM217.884 154.46L216.624 154.356L217.484 143.892L218.744 143.995L217.884 154.46ZM193.181 159.266L193.035 161.051L194.411 161.164L194.331 162.138L192.955 162.025L192.579 166.597C192.555 166.892 192.598 167.12 192.708 167.28C192.819 167.435 193.022 167.525 193.317 167.549C193.462 167.561 193.664 167.55 193.923 167.517L193.839 168.539C193.5 168.602 193.174 168.621 192.861 168.595C192.297 168.549 191.887 168.344 191.629 167.98C191.37 167.616 191.267 167.12 191.319 166.493L191.694 161.922L190.352 161.812L190.432 160.837L191.774 160.948L191.921 159.163L193.181 159.266ZM196.653 168.77L195.393 168.666L195.998 161.295L197.259 161.398L196.653 168.77ZM196.057 159.331C196.073 159.126 196.149 158.959 196.283 158.828C196.422 158.698 196.614 158.643 196.859 158.663C197.104 158.683 197.285 158.769 197.401 158.92C197.516 159.071 197.566 159.249 197.549 159.453C197.532 159.658 197.454 159.823 197.316 159.949C197.178 160.075 196.986 160.127 196.741 160.107C196.495 160.087 196.315 160.004 196.199 159.857C196.087 159.711 196.04 159.535 196.057 159.331ZM201.139 159.92L200.992 161.705L202.368 161.818L202.288 162.792L200.912 162.679L200.537 167.251C200.512 167.546 200.555 167.773 200.666 167.933C200.776 168.089 200.979 168.179 201.275 168.203C201.42 168.215 201.622 168.204 201.881 168.17L201.797 169.192C201.458 169.256 201.132 169.275 200.818 169.249C200.255 169.203 199.844 168.998 199.586 168.634C199.328 168.269 199.225 167.774 199.276 167.147L199.652 162.576L198.31 162.465L198.39 161.491L199.732 161.601L199.878 159.816L201.139 159.92ZM204.611 169.423L203.35 169.32L204.21 158.855L205.47 158.959L204.611 169.423ZM209.682 169.977C208.683 169.895 207.897 169.501 207.324 168.796C206.751 168.086 206.51 167.181 206.6 166.082L206.619 165.85C206.679 165.119 206.871 164.479 207.195 163.929C207.524 163.375 207.952 162.958 208.478 162.676C209.009 162.391 209.567 162.272 210.153 162.32C211.112 162.399 211.831 162.776 212.31 163.451C212.79 164.126 212.981 165.051 212.884 166.228L212.841 166.752L207.847 166.342C207.806 167.07 207.969 167.676 208.336 168.159C208.708 168.638 209.208 168.903 209.835 168.954C210.28 168.991 210.664 168.931 210.988 168.774C211.312 168.618 211.602 168.4 211.858 168.119L212.579 168.782C211.883 169.68 210.917 170.079 209.682 169.977ZM210.068 163.356C209.559 163.314 209.117 163.465 208.741 163.809C208.366 164.149 208.11 164.649 207.973 165.31L211.666 165.613L211.674 165.518C211.69 164.875 211.558 164.365 211.278 163.99C210.998 163.611 210.595 163.399 210.068 163.356ZM229.144 171.439L227.829 171.331L228.206 166.746L223.205 166.335L222.829 170.92L221.521 170.813L222.335 160.893L223.643 161L223.293 165.265L228.294 165.676L228.644 161.411L229.959 161.519L229.144 171.439ZM238.843 163.333L235.655 163.071L234.928 171.914L233.627 171.807L234.354 162.964L231.172 162.703L231.26 161.626L238.932 162.256L238.843 163.333ZM242.093 162.516L244.671 170.876L248.579 163.049L250.275 163.188L249.461 173.108L248.152 173L248.47 169.137L248.935 164.978L245.019 172.743L244.017 172.661L241.425 164.382L241.214 168.541L240.897 172.404L239.589 172.297L240.403 162.377L242.093 162.516ZM253.173 172.336L257.874 172.722L257.786 173.792L251.77 173.298L252.585 163.378L253.9 163.486L253.173 172.336ZM274.392 165.937L274.245 167.722L275.622 167.836L275.542 168.81L274.165 168.697L273.79 173.268C273.766 173.563 273.809 173.791 273.919 173.951C274.03 174.106 274.233 174.196 274.528 174.221C274.673 174.232 274.875 174.222 275.134 174.188L275.05 175.21C274.711 175.274 274.385 175.293 274.072 175.267C273.508 175.221 273.098 175.015 272.839 174.651C272.581 174.287 272.478 173.792 272.529 173.165L272.905 168.593L271.563 168.483L271.643 167.509L272.985 167.619L273.132 165.834L274.392 165.937ZM277.864 175.441L276.604 175.338L277.209 167.966L278.469 168.069L277.864 175.441ZM277.268 166.002C277.284 165.798 277.36 165.63 277.494 165.5C277.633 165.369 277.825 165.314 278.07 165.334C278.315 165.354 278.496 165.44 278.611 165.591C278.727 165.743 278.776 165.92 278.76 166.125C278.743 166.329 278.665 166.494 278.527 166.62C278.388 166.746 278.197 166.799 277.951 166.779C277.706 166.758 277.525 166.675 277.409 166.528C277.298 166.382 277.251 166.207 277.268 166.002ZM282.35 166.591L282.203 168.376L283.579 168.489L283.499 169.463L282.123 169.35L281.747 173.922C281.723 174.217 281.766 174.445 281.877 174.605C281.987 174.76 282.19 174.85 282.485 174.874C282.631 174.886 282.833 174.875 283.092 174.842L283.008 175.864C282.669 175.927 282.342 175.946 282.029 175.92C281.466 175.874 281.055 175.669 280.797 175.305C280.539 174.941 280.436 174.445 280.487 173.818L280.863 169.247L279.52 169.137L279.6 168.162L280.943 168.273L281.089 166.488L282.35 166.591ZM285.821 176.095L284.561 175.991L285.421 165.527L286.681 165.63L285.821 176.095ZM290.893 176.649C289.894 176.567 289.107 176.173 288.534 175.467C287.962 174.757 287.72 173.852 287.811 172.753L287.83 172.522C287.89 171.79 288.082 171.15 288.406 170.6C288.735 170.047 289.163 169.629 289.689 169.348C290.22 169.062 290.778 168.943 291.364 168.992C292.322 169.07 293.041 169.447 293.521 170.122C294 170.797 294.192 171.723 294.095 172.899L294.052 173.424L289.058 173.014C289.017 173.742 289.18 174.347 289.547 174.83C289.919 175.309 290.419 175.574 291.045 175.625C291.491 175.662 291.875 175.602 292.199 175.446C292.523 175.29 292.813 175.071 293.069 174.79L293.789 175.453C293.094 176.352 292.128 176.75 290.893 176.649ZM291.279 170.027C290.77 169.985 290.328 170.136 289.952 170.481C289.577 170.82 289.321 171.32 289.184 171.981L292.877 172.285L292.885 172.189C292.901 171.546 292.769 171.037 292.489 170.662C292.209 170.282 291.806 170.07 291.279 170.027ZM195.946 181.137C195.853 182.264 195.52 183.148 194.946 183.792C194.372 184.431 193.649 184.714 192.777 184.642C191.846 184.566 191.153 184.178 190.699 183.477L190.567 184.324L189.409 184.229L190.269 173.764L191.529 173.867L191.208 177.771C191.769 177.182 192.497 176.924 193.391 176.997C194.286 177.071 194.96 177.467 195.413 178.185C195.871 178.904 196.051 179.852 195.955 181.028L195.946 181.137ZM194.697 180.891C194.768 180.032 194.656 179.355 194.363 178.86C194.07 178.365 193.612 178.092 192.99 178.041C192.159 177.973 191.53 178.31 191.103 179.052L190.841 182.241C191.164 183.044 191.734 183.48 192.552 183.547C193.156 183.597 193.645 183.401 194.019 182.961C194.394 182.521 194.62 181.831 194.697 180.891ZM197.219 181.091C197.278 180.369 197.472 179.731 197.801 179.177C198.135 178.624 198.566 178.211 199.096 177.939C199.631 177.667 200.223 177.558 200.872 177.612C201.876 177.694 202.658 178.108 203.219 178.854C203.784 179.6 204.019 180.55 203.924 181.703L203.917 181.792C203.858 182.51 203.667 183.143 203.342 183.693C203.023 184.238 202.594 184.649 202.055 184.924C201.52 185.201 200.921 185.311 200.258 185.257C199.259 185.175 198.476 184.761 197.911 184.015C197.351 183.269 197.117 182.324 197.211 181.179L197.219 181.091ZM198.473 181.345C198.406 182.162 198.541 182.834 198.877 183.36C199.218 183.887 199.706 184.176 200.342 184.228C200.983 184.281 201.512 184.073 201.93 183.604C202.348 183.131 202.595 182.442 202.669 181.539C202.735 180.73 202.596 180.06 202.251 179.529C201.911 178.993 201.423 178.7 200.787 178.647C200.165 178.596 199.643 178.802 199.22 179.266C198.798 179.73 198.549 180.423 198.473 181.345ZM205.203 181.754C205.296 180.623 205.638 179.736 206.231 179.094C206.823 178.448 207.553 178.161 208.421 178.232C209.284 178.303 209.943 178.654 210.399 179.286L210.714 175.443L211.975 175.547L211.115 186.012L209.957 185.917L209.961 185.121C209.406 185.698 208.679 185.949 207.779 185.875C206.925 185.805 206.257 185.398 205.774 184.654C205.295 183.91 205.102 182.975 205.195 181.849L205.203 181.754ZM206.451 182C206.383 182.836 206.502 183.504 206.808 184.005C207.114 184.506 207.572 184.781 208.181 184.831C208.98 184.897 209.593 184.586 210.02 183.898L210.298 180.512C209.978 179.786 209.428 179.391 208.646 179.327C208.029 179.276 207.528 179.475 207.143 179.924C206.759 180.372 206.528 181.065 206.451 182ZM215.641 184.525L217.812 179.14L219.161 179.251L215.498 187.517C214.938 188.706 214.159 189.259 213.16 189.177L212.923 189.137L212.46 189.01L212.544 187.988L212.883 188.043C213.31 188.078 213.648 188.019 213.899 187.866C214.153 187.713 214.377 187.414 214.569 186.968L214.91 186.241L212.879 178.735L214.255 178.848L215.641 184.525ZM188.778 191.328L185.589 191.066L184.863 199.909L183.562 199.802L184.288 190.959L181.106 190.698L181.195 189.621L188.866 190.251L188.778 191.328ZM191.118 193.9C191.733 193.26 192.488 192.977 193.383 193.05C194.941 193.178 195.654 194.122 195.523 195.881L195.123 200.752L193.863 200.648L194.264 195.77C194.303 195.238 194.212 194.836 193.993 194.561C193.777 194.288 193.417 194.13 192.913 194.089C192.505 194.055 192.137 194.135 191.81 194.327C191.483 194.52 191.219 194.786 191.017 195.126L190.586 200.379L189.325 200.276L190.185 189.811L191.445 189.914L191.118 193.9ZM198.38 201.019L197.119 200.916L197.725 193.544L198.985 193.648L198.38 201.019ZM197.783 191.581C197.8 191.376 197.876 191.209 198.01 191.078C198.149 190.947 198.341 190.892 198.586 190.913C198.831 190.933 199.012 191.018 199.127 191.17C199.243 191.321 199.292 191.499 199.276 191.703C199.259 191.907 199.181 192.073 199.043 192.198C198.904 192.324 198.713 192.377 198.467 192.357C198.222 192.337 198.041 192.253 197.925 192.107C197.814 191.96 197.767 191.785 197.783 191.581ZM204.856 199.583C204.884 199.242 204.776 198.968 204.533 198.761C204.294 198.549 203.86 198.349 203.231 198.16C202.606 197.971 202.113 197.766 201.752 197.545C201.395 197.323 201.137 197.073 200.977 196.795C200.821 196.517 200.758 196.196 200.788 195.833C200.838 195.229 201.134 194.739 201.677 194.363C202.225 193.987 202.896 193.832 203.691 193.897C204.527 193.966 205.186 194.237 205.668 194.711C206.155 195.186 206.371 195.759 206.315 196.431L205.048 196.327C205.077 195.982 204.953 195.672 204.679 195.398C204.408 195.124 204.051 194.969 203.606 194.933C203.147 194.895 202.78 194.965 202.505 195.144C202.229 195.323 202.078 195.573 202.052 195.896C202.027 196.2 202.128 196.439 202.356 196.613C202.585 196.788 203.006 196.971 203.621 197.163C204.241 197.356 204.738 197.566 205.113 197.793C205.487 198.021 205.756 198.281 205.92 198.573C206.088 198.861 206.156 199.203 206.124 199.598C206.07 200.256 205.763 200.764 205.203 201.12C204.644 201.472 203.944 201.614 203.104 201.545C202.513 201.496 201.999 201.349 201.562 201.103C201.125 200.856 200.793 200.536 200.564 200.143C200.341 199.745 200.247 199.328 200.283 198.892L201.544 198.995C201.532 199.42 201.672 199.769 201.965 200.045C202.263 200.316 202.67 200.473 203.188 200.516C203.665 200.555 204.054 200.491 204.356 200.324C204.663 200.152 204.83 199.905 204.856 199.583ZM212.428 202.173L211.168 202.07L211.773 194.698L213.034 194.802L212.428 202.173ZM211.832 192.735C211.849 192.53 211.924 192.363 212.058 192.232C212.197 192.102 212.389 192.046 212.634 192.067C212.88 192.087 213.06 192.172 213.176 192.324C213.291 192.475 213.341 192.653 213.324 192.857C213.307 193.062 213.23 193.227 213.091 193.352C212.953 193.478 212.761 193.531 212.516 193.511C212.27 193.491 212.09 193.407 211.974 193.261C211.862 193.114 211.815 192.939 211.832 192.735ZM218.905 200.737C218.933 200.396 218.825 200.122 218.581 199.915C218.342 199.703 217.908 199.503 217.279 199.314C216.655 199.125 216.162 198.92 215.8 198.699C215.443 198.477 215.185 198.227 215.025 197.949C214.87 197.671 214.807 197.35 214.837 196.987C214.886 196.383 215.183 195.893 215.726 195.517C216.273 195.141 216.944 194.986 217.739 195.051C218.575 195.12 219.234 195.391 219.716 195.865C220.203 196.34 220.419 196.913 220.364 197.585L219.097 197.481C219.125 197.136 219.002 196.826 218.727 196.552C218.457 196.278 218.099 196.123 217.654 196.087C217.195 196.049 216.828 196.12 216.553 196.298C216.278 196.477 216.127 196.727 216.1 197.05C216.075 197.354 216.177 197.593 216.405 197.767C216.633 197.942 217.055 198.125 217.67 198.317C218.29 198.51 218.787 198.72 219.161 198.947C219.536 199.175 219.805 199.435 219.968 199.727C220.137 200.015 220.205 200.357 220.172 200.752C220.118 201.411 219.811 201.918 219.251 202.274C218.692 202.626 217.992 202.768 217.152 202.699C216.562 202.65 216.048 202.503 215.611 202.257C215.174 202.01 214.841 201.69 214.613 201.297C214.389 200.899 214.296 200.482 214.331 200.046L215.592 200.149C215.58 200.574 215.72 200.924 216.013 201.199C216.311 201.47 216.719 201.627 217.237 201.67C217.714 201.709 218.103 201.645 218.405 201.478C218.711 201.306 218.878 201.059 218.905 200.737ZM232.929 203.858L231.614 203.75L231.99 199.164L226.99 198.754L226.613 203.339L225.305 203.231L226.12 193.312L227.428 193.419L227.077 197.684L232.078 198.095L232.429 193.83L233.743 193.938L232.929 203.858ZM242.628 195.751L239.439 195.489L238.713 204.333L237.411 204.226L238.138 195.383L234.956 195.121L235.045 194.045L242.716 194.675L242.628 195.751ZM245.877 194.935L248.455 203.295L252.363 195.467L254.06 195.607L253.245 205.527L251.937 205.419L252.254 201.556L252.719 197.397L248.803 205.162L247.801 205.079L245.21 196.8L244.998 200.96L244.681 204.823L243.373 204.716L244.188 194.796L245.877 194.935ZM256.957 204.755L261.658 205.141L261.57 206.21L255.554 205.716L256.369 195.797L257.684 195.905L256.957 204.755ZM267.966 203.917L266.828 203.823L267.325 196.696L268.646 196.805L267.966 203.917ZM266.514 205.979C266.531 205.774 266.606 205.609 266.74 205.483C266.879 205.352 267.071 205.297 267.316 205.317C267.561 205.338 267.742 205.423 267.857 205.575C267.973 205.721 268.023 205.897 268.006 206.101C267.989 206.306 267.912 206.471 267.773 206.597C267.635 206.718 267.444 206.768 267.199 206.748C266.953 206.728 266.772 206.647 266.656 206.505C266.545 206.358 266.497 206.183 266.514 205.979ZM199.076 213.502C198.984 214.629 198.65 215.513 198.076 216.157C197.502 216.795 196.779 217.079 195.907 217.007C194.976 216.931 194.283 216.542 193.829 215.842L193.697 216.689L192.539 216.594L193.399 206.129L194.659 206.232L194.339 210.136C194.899 209.547 195.627 209.289 196.522 209.362C197.416 209.436 198.09 209.832 198.543 210.55C199.001 211.269 199.182 212.217 199.085 213.393L199.076 213.502ZM197.827 213.256C197.898 212.397 197.787 211.72 197.493 211.225C197.2 210.73 196.743 210.457 196.12 210.406C195.289 210.338 194.66 210.675 194.233 211.417L193.971 214.605C194.294 215.409 194.864 215.845 195.682 215.912C196.286 215.962 196.775 215.766 197.15 215.326C197.524 214.886 197.75 214.196 197.827 213.256ZM200.349 213.456C200.408 212.734 200.602 212.096 200.931 211.542C201.265 210.989 201.696 210.576 202.226 210.304C202.761 210.032 203.353 209.923 204.002 209.977C205.006 210.059 205.788 210.473 206.349 211.219C206.914 211.965 207.149 212.915 207.055 214.068L207.047 214.157C206.988 214.875 206.797 215.508 206.473 216.058C206.154 216.603 205.724 217.014 205.185 217.289C204.65 217.566 204.051 217.676 203.388 217.622C202.389 217.54 201.607 217.126 201.041 216.38C200.481 215.634 200.247 214.689 200.341 213.544L200.349 213.456ZM201.604 213.71C201.536 214.527 201.671 215.199 202.007 215.725C202.348 216.252 202.837 216.541 203.472 216.593C204.113 216.646 204.642 216.438 205.06 215.969C205.479 215.496 205.725 214.807 205.799 213.904C205.866 213.095 205.726 212.425 205.381 211.894C205.041 211.358 204.553 211.064 203.917 211.012C203.295 210.961 202.773 211.167 202.351 211.631C201.928 212.095 201.679 212.788 201.604 213.71ZM208.333 214.119C208.426 212.988 208.769 212.101 209.361 211.459C209.953 210.813 210.684 210.525 211.551 210.597C212.414 210.668 213.073 211.019 213.529 211.651L213.845 207.808L215.105 207.912L214.245 218.377L213.087 218.282L213.091 217.486C212.536 218.062 211.809 218.314 210.91 218.24C210.056 218.17 209.387 217.763 208.904 217.019C208.426 216.275 208.233 215.34 208.325 214.214L208.333 214.119ZM209.582 214.365C209.513 215.201 209.632 215.869 209.938 216.37C210.245 216.871 210.702 217.146 211.311 217.196C212.11 217.262 212.723 216.951 213.15 216.263L213.428 212.877C213.108 212.151 212.558 211.756 211.777 211.692C211.159 211.641 210.658 211.84 210.274 212.289C209.889 212.737 209.659 213.43 209.582 214.365ZM218.771 216.89L220.942 211.505L222.291 211.616L218.628 219.882C218.069 221.071 217.289 221.624 216.29 221.542L216.053 221.502L215.59 221.375L215.674 220.353L216.013 220.408C216.44 220.443 216.778 220.384 217.029 220.231C217.284 220.078 217.507 219.779 217.699 219.333L218.04 218.606L216.009 211.1L217.385 211.213L218.771 216.89ZM193.022 226.164C193.637 225.524 194.392 225.241 195.287 225.315C196.845 225.443 197.558 226.386 197.427 228.145L197.027 233.016L195.767 232.913L196.167 228.034C196.207 227.503 196.116 227.1 195.896 226.826C195.681 226.552 195.321 226.394 194.817 226.353C194.408 226.319 194.041 226.399 193.714 226.591C193.387 226.784 193.123 227.05 192.921 227.391L192.49 232.643L191.229 232.54L192.089 222.075L193.349 222.179L193.022 226.164ZM201.377 224.155L201.23 225.94L202.606 226.053L202.526 227.027L201.15 226.914L200.774 231.486C200.75 231.781 200.793 232.009 200.904 232.169C201.014 232.324 201.217 232.414 201.512 232.438C201.658 232.45 201.86 232.439 202.119 232.406L202.035 233.427C201.696 233.491 201.369 233.51 201.056 233.484C200.493 233.438 200.082 233.233 199.824 232.869C199.566 232.504 199.463 232.009 199.514 231.382L199.89 226.811L198.547 226.7L198.627 225.726L199.97 225.836L200.116 224.051L201.377 224.155ZM205.27 226.272L205.237 227.092C205.83 226.501 206.585 226.243 207.502 226.318C208.533 226.403 209.203 226.856 209.51 227.676C209.785 227.342 210.126 227.082 210.534 226.896C210.948 226.711 211.422 226.64 211.958 226.684C213.575 226.817 214.327 227.741 214.213 229.455L213.808 234.395L212.547 234.291L212.947 229.427C212.99 228.9 212.902 228.497 212.682 228.218C212.463 227.935 212.07 227.77 211.502 227.723C211.034 227.685 210.635 227.794 210.303 228.05C209.971 228.302 209.761 228.662 209.672 229.13L209.27 234.022L208.003 233.918L208.4 229.087C208.488 228.015 208.007 227.436 206.958 227.35C206.131 227.282 205.537 227.588 205.175 228.267L204.733 233.649L203.472 233.546L204.078 226.174L205.27 226.272ZM217.085 234.664L215.824 234.56L216.684 224.096L217.944 224.199L217.085 234.664Z" fill="#EC2F46"/>
<path d="M224.734 150.564L220.376 148.43L220.482 147.135L226.089 150.189L226.007 151.183L219.977 153.288L220.084 151.979L224.734 150.564ZM218.859 166.136L214.501 164.001L214.607 162.707L220.214 165.76L220.132 166.755L214.102 168.859L214.209 167.551L218.859 166.136ZM260.286 169.58L264.409 171.654L264.299 172.989L258.938 169.949L259.02 168.955L264.805 166.837L264.695 168.173L260.286 169.58ZM266.362 175.354L265.279 175.265L270.306 164.834L271.382 164.922L266.362 175.354ZM300.07 172.807L295.712 170.672L295.818 169.378L301.425 172.431L301.343 173.426L295.313 175.53L295.42 174.222L300.07 172.807ZM183.515 179.327L187.638 181.401L187.529 182.737L182.168 179.697L182.25 178.702L188.034 176.585L187.924 177.92L183.515 179.327ZM224.512 182.654L220.154 180.519L220.26 179.225L225.867 182.278L225.785 183.273L219.755 185.377L219.862 184.069L224.512 182.654ZM180.895 211.22L185.019 213.294L184.909 214.629L179.548 211.589L179.63 210.595L185.414 208.477L185.305 209.812L180.895 211.22ZM186.971 216.994L185.888 216.905L190.915 206.473L191.992 206.562L186.971 216.994ZM227.642 215.019L223.284 212.884L223.39 211.59L228.997 214.643L228.915 215.638L222.885 217.742L222.992 216.434L227.642 215.019ZM179.585 227.166L183.709 229.24L183.599 230.576L178.238 227.536L178.32 226.541L184.104 224.423L183.995 225.759L179.585 227.166ZM185.661 232.94L184.578 232.851L189.605 222.42L190.682 222.508L185.661 232.94ZM223.934 230.768L219.576 228.634L219.682 227.339L225.289 230.392L225.207 231.387L219.177 233.491L219.284 232.183L223.934 230.768Z" fill="#2D2AC9"/>
<path d="M468.475 129.051L480.09 133.745V137.382L464.912 130.35V127.641L480.09 120.627V124.264L468.475 129.051ZM486.194 143.319H483.244L494.525 113.984H497.457L486.194 143.319ZM513.321 128.939L501.057 124.134V120.608L516.902 127.622V130.331L501.057 137.363V133.801L513.321 128.939Z" fill="#050772"/>
<path d="M483.651 162.36C483.431 164.24 482.735 165.693 481.563 166.718C480.4 167.736 478.849 168.244 476.913 168.244C474.813 168.244 473.128 167.491 471.859 165.986C470.597 164.48 469.967 162.466 469.967 159.943V158.234C469.967 156.582 470.26 155.13 470.846 153.876C471.44 152.623 472.278 151.663 473.36 150.996C474.443 150.32 475.696 149.982 477.12 149.982C479.008 149.982 480.522 150.511 481.661 151.569C482.8 152.619 483.464 154.076 483.651 155.939H481.295C481.091 154.523 480.648 153.498 479.964 152.863C479.289 152.229 478.341 151.911 477.12 151.911C475.623 151.911 474.447 152.465 473.592 153.571C472.746 154.678 472.323 156.253 472.323 158.295V160.017C472.323 161.945 472.726 163.479 473.531 164.619C474.337 165.758 475.464 166.328 476.913 166.328C478.215 166.328 479.212 166.035 479.903 165.449C480.603 164.855 481.067 163.825 481.295 162.36H483.651ZM492.098 160.078C490.088 159.5 488.623 158.792 487.704 157.954C486.792 157.107 486.336 156.066 486.336 154.829C486.336 153.429 486.894 152.273 488.009 151.362C489.132 150.442 490.589 149.982 492.379 149.982C493.6 149.982 494.686 150.218 495.638 150.69C496.598 151.162 497.339 151.813 497.86 152.644C498.389 153.474 498.653 154.381 498.653 155.366H496.297C496.297 154.292 495.956 153.449 495.272 152.839C494.588 152.22 493.624 151.911 492.379 151.911C491.223 151.911 490.32 152.167 489.669 152.68C489.026 153.185 488.705 153.889 488.705 154.792C488.705 155.516 489.01 156.131 489.62 156.635C490.239 157.132 491.284 157.587 492.757 158.002C494.238 158.417 495.394 158.877 496.224 159.382C497.062 159.878 497.681 160.46 498.08 161.127C498.486 161.795 498.69 162.58 498.69 163.483C498.69 164.924 498.128 166.079 497.005 166.95C495.882 167.813 494.381 168.244 492.501 168.244C491.28 168.244 490.141 168.012 489.083 167.548C488.025 167.076 487.207 166.433 486.629 165.62C486.06 164.806 485.775 163.882 485.775 162.849H488.131C488.131 163.923 488.526 164.773 489.315 165.4C490.112 166.018 491.174 166.328 492.501 166.328C493.738 166.328 494.686 166.075 495.345 165.571C496.004 165.066 496.334 164.379 496.334 163.508C496.334 162.637 496.029 161.966 495.418 161.494C494.808 161.014 493.701 160.542 492.098 160.078ZM506.942 160.078C504.932 159.5 503.467 158.792 502.547 157.954C501.636 157.107 501.18 156.066 501.18 154.829C501.18 153.429 501.738 152.273 502.853 151.362C503.976 150.442 505.432 149.982 507.223 149.982C508.443 149.982 509.53 150.218 510.482 150.69C511.442 151.162 512.183 151.813 512.704 152.644C513.233 153.474 513.497 154.381 513.497 155.366H511.141C511.141 154.292 510.799 153.449 510.116 152.839C509.432 152.22 508.468 151.911 507.223 151.911C506.067 151.911 505.164 152.167 504.513 152.68C503.87 153.185 503.548 153.889 503.548 154.792C503.548 155.516 503.854 156.131 504.464 156.635C505.082 157.132 506.128 157.587 507.601 158.002C509.082 158.417 510.238 158.877 511.068 159.382C511.906 159.878 512.525 160.46 512.923 161.127C513.33 161.795 513.534 162.58 513.534 163.483C513.534 164.924 512.972 166.079 511.849 166.95C510.726 167.813 509.225 168.244 507.345 168.244C506.124 168.244 504.985 168.012 503.927 167.548C502.869 167.076 502.051 166.433 501.473 165.62C500.903 164.806 500.619 163.882 500.619 162.849H502.975C502.975 163.923 503.369 164.773 504.159 165.4C504.956 166.018 506.018 166.328 507.345 166.328C508.582 166.328 509.53 166.075 510.189 165.571C510.848 165.066 511.178 164.379 511.178 163.508C511.178 162.637 510.873 161.966 510.262 161.494C509.652 161.014 508.545 160.542 506.942 160.078Z" fill="#EA4949"/>
<rect x="634" y="112" width="27" height="24" fill="#C4C4C4"/>
<rect x="767.492" y="102.908" width="27" height="24" transform="rotate(1.66775 767.492 102.908)" fill="#C4C4C4"/>
<rect x="732.698" y="107" width="27" height="24" transform="rotate(1.66775 732.698 107)" fill="#C4C4C4"/>
<rect x="697.698" y="108" width="27" height="24" transform="rotate(1.66775 697.698 108)" fill="#C4C4C4"/>
<rect x="646" y="143.696" width="77" height="57" transform="rotate(-1.26205 646 143.696)" fill="#C4C4C4"/>
<rect x="736" y="142" width="31" height="57" fill="#C4C4C4"/>
<rect x="651" y="206.368" width="150" height="30" transform="rotate(-0.522703 651 206.368)" fill="#C4C4C4"/>
</g>
<defs>
<clipPath id="clip0">
<rect width="1041.32" height="554.17" fill="white"/>
</clipPath>
</defs>
</svg>
