<svg width="1024" height="555" viewBox="0 0 1024 555" fill="none" xmlns="http://www.w3.org/2000/svg">
<path d="M1024 0H0V555H1024V0Z" fill="#E5E5E5" fill-opacity="0.28"/>
<path d="M573.853 96.82H383.194C380.301 96.82 377.956 99.2063 377.956 102.15V264.82C377.956 267.764 380.301 270.15 383.194 270.15H573.853C576.746 270.15 579.091 267.764 579.091 264.82V102.15C579.091 99.2063 576.746 96.82 573.853 96.82Z" fill="#65617D"/>
<path d="M570.236 108.49H387.449V252.82H570.236V108.49Z" fill="#F8F8FF"/>
<path opacity="0.1" d="M944.871 438.21C943.731 440.71 942.594 443.177 941.461 445.61C939.692 449.39 937.946 453.097 936.223 456.73C935.457 458.34 934.69 459.92 933.943 461.5C925.492 479.07 917.601 494.61 910.898 507.39C904.817 518.97 895.787 528.672 884.754 535.481C873.722 542.29 861.093 545.954 848.191 546.09L699.16 547.74H697.588L684.813 547.88L673.885 548L640.374 548.37H639.018L621.957 548.56H621.437L516.285 549.72L422.425 550.72L411.507 550.84L343.699 551.59H343.62L299.643 552.07H299.171L160.116 553.6L118.517 554.06C109.64 554.162 100.799 552.874 92.3076 550.24C77.5295 545.698 64.2482 537.141 53.8929 525.49C36.0269 505.46 23.0058 482.09 14.2595 456.73C12.9951 453.07 11.8158 449.363 10.7217 445.61C-19.5561 341.46 17.3551 207.09 83.7874 117.17C86.5717 113.41 89.402 109.743 92.2781 106.17L92.3469 106.09C112.778 80.57 135.685 59.25 160.086 44.09C203.326 17.18 251.234 9.60001 298.356 32.19C338.225 51.31 375.451 60.3 411.536 62.74C415.182 62.98 418.828 63.16 422.454 63.27C505.229 65.92 582.806 35.57 673.904 15.98C677.531 15.2 681.167 14.43 684.832 13.7C749.82 0.540001 821.913 -6.39999 907.646 8.19001C916.553 9.67067 925.342 11.8097 933.943 14.59C937.724 15.83 941.366 17.1633 944.871 18.59C985.792 35.53 1008.11 66.83 1017.59 106.05C1018.49 109.69 1019.26 113.393 1019.92 117.16C1036.74 211.5 987.492 345.32 944.871 438.21Z" fill="#6C63FF"/>
<path d="M226.617 265.83H207.945V323.49H226.617V265.83Z" fill="#3F3D56"/>
<path d="M729.114 262.83H710.442V323.83H729.114V262.83Z" fill="#3F3D56"/>
<path d="M848.19 533.65V546.65L698.895 548.05L697.303 548.08L640.56 548.61L639.204 548.63L621.957 548.78H621.446L516.314 549.77L343.738 551.4H343.59L299.712 551.82L299.24 551.83L104.267 553.65V538.65L150.111 510.65L242.094 509.87L244.06 509.86L244.708 509.85L246.674 509.82L290.838 509.45L292.813 509.44L293.442 509.43L295.407 509.42L309.568 509.3L309.942 509.29L344.878 508.99H345.163L617.771 506.65L624.443 506.6H625.112L630.202 506.55L667.202 506.24L669.167 506.21L670.985 506.19H671.929L683.436 506.1L685.716 506.07L688.773 506.05L698.354 505.96L713.557 505.83L715.522 505.81L718.942 505.79H719.581L793.001 505.15L848.19 533.65Z" fill="#65617D"/>
<path opacity="0.2" d="M848.19 533.65V546.65L698.895 548.05L697.303 548.08L640.56 548.61L639.204 548.63L621.957 548.78H621.446L516.314 549.77L343.738 551.4H343.59L299.712 551.82L299.24 551.83L104.267 553.65V538.65L150.111 510.65L242.094 509.87L244.06 509.86L244.708 509.85L246.674 509.82L290.838 509.45L292.813 509.44L293.442 509.43L295.407 509.42L309.568 509.3L309.942 509.29L344.878 508.99H345.163L617.771 506.65L624.443 506.6H625.112L630.202 506.55L667.202 506.24L669.167 506.21L670.985 506.19H671.929L683.436 506.1L685.716 506.07L688.773 506.05L698.354 505.96L713.557 505.83L715.522 505.81L718.942 505.79H719.581L793.001 505.15L848.19 533.65Z" fill="#808080" fill-opacity="0.19"/>
<path d="M290.985 483.66V508.15C290.986 509.31 290.663 510.446 290.053 511.427C289.445 512.408 288.575 513.192 287.546 513.69C286.779 514.068 285.941 514.273 285.089 514.29L250.792 515.03C249.876 515.052 248.967 514.857 248.138 514.46C247.091 513.971 246.202 513.186 245.58 512.199C244.959 511.211 244.629 510.063 244.63 508.89V483.66H290.985Z" fill="#3F3D56"/>
<path opacity="0.1" d="M290.985 483.66V508.15C290.986 509.31 290.663 510.446 290.053 511.427C289.445 512.408 288.575 513.192 287.546 513.69C286.779 514.068 285.941 514.273 285.089 514.29L250.792 515.03C249.876 515.052 248.967 514.857 248.138 514.46C247.091 513.971 246.202 513.186 245.58 512.199C244.959 511.211 244.629 510.063 244.63 508.89V483.66H290.985Z" fill="#808080" fill-opacity="0.19"/>
<path d="M292.95 483.66V508.15C292.951 509.31 292.628 510.446 292.019 511.427C291.411 512.408 290.541 513.192 289.511 513.69C288.744 514.068 287.906 514.273 287.054 514.29L252.757 515.03C251.841 515.052 250.932 514.857 250.104 514.46C249.056 513.971 248.168 513.186 247.546 512.199C246.925 511.211 246.594 510.063 246.595 508.89V483.66H292.95Z" fill="#3F3D56"/>
<path d="M715.522 483.66H669.167V515.16H715.522V483.66Z" fill="#3F3D56"/>
<path opacity="0.1" d="M715.522 483.66H669.167V515.16H715.522V483.66Z" fill="#808080" fill-opacity="0.19"/>
<path d="M713.557 483.66H667.202V515.16H713.557V483.66Z" fill="#3F3D56"/>
<path opacity="0.1" d="M226.617 265.82V271.55L207.945 271.06V265.82H226.617Z" fill="#808080" fill-opacity="0.19"/>
<path d="M349.516 107.4L327.081 271.4C326.938 272.448 326.422 273.405 325.629 274.089C324.837 274.774 323.825 275.137 322.786 275.11L143.144 270.37L139.734 270.28C139.14 270.266 138.555 270.124 138.02 269.865C137.483 269.605 137.007 269.234 136.62 268.774C136.235 268.315 135.949 267.777 135.781 267.198C135.613 266.618 135.567 266.009 135.646 265.41L160.833 93.73C160.995 92.6666 161.543 91.7037 162.37 91.0317C163.195 90.3596 164.239 90.0272 165.294 90.1L345.585 102.52C346.167 102.554 346.735 102.711 347.255 102.98C347.774 103.249 348.233 103.625 348.602 104.083C348.971 104.542 349.243 105.073 349.4 105.644C349.557 106.215 349.598 106.813 349.516 107.4Z" fill="#65617D"/>
<path d="M172.891 99.16L153.895 250.49L318.993 255.82L339.296 109.82L172.891 99.16Z" fill="#FBFBFF"/>
<path opacity="0.1" d="M729.114 262.82V266.61L710.442 267V262.82H729.114Z" fill="#808080" fill-opacity="0.19"/>
<path d="M813.363 259.62C813.389 260.034 813.333 260.45 813.198 260.842C813.063 261.233 812.851 261.593 812.575 261.9C812.3 262.206 811.967 262.453 811.596 262.624C811.224 262.796 810.822 262.89 810.414 262.9L626.448 266.77C625.684 266.786 624.942 266.507 624.372 265.99C623.801 265.472 623.444 264.754 623.372 263.98L607.56 96.7C607.521 96.285 607.565 95.8662 607.69 95.4691C607.815 95.072 608.017 94.7047 608.286 94.3896C608.554 94.0745 608.882 93.8181 609.251 93.636C609.619 93.4539 610.021 93.3498 610.43 93.33L793.001 84.09L794.966 83.99C795.747 83.9481 796.514 84.2167 797.104 84.7391C797.695 85.2615 798.063 85.9969 798.13 86.79L813.363 259.62Z" fill="#65617D"/>
<path d="M618.066 103.16L784.805 94.82L798.887 246.82L633.465 250.82L618.066 103.16Z" fill="white"/>
<path d="M680.721 108.786L654.198 108L653.512 131.99L680.034 132.776L680.721 108.786Z" fill="#C4C4C4"/>
<path opacity="0.1" d="M813.363 259.62C813.389 260.034 813.333 260.45 813.198 260.842C813.063 261.233 812.851 261.593 812.575 261.9C812.3 262.206 811.967 262.453 811.596 262.624C811.224 262.796 810.822 262.89 810.414 262.9L793.001 84.09L794.966 83.99C795.747 83.9481 796.514 84.2167 797.104 84.7391C797.695 85.2615 798.063 85.9969 798.13 86.79L813.363 259.62Z" fill="#808080" fill-opacity="0.19"/>
<path opacity="0.1" d="M165.324 87.09L143.144 267.37L139.734 267.28C139.14 267.266 138.555 267.124 138.02 266.865C137.483 266.605 137.007 266.234 136.62 265.774C136.235 265.315 135.949 264.777 135.781 264.198C135.613 263.618 135.567 263.009 135.646 262.41L160.833 90.73C160.993 89.6592 161.545 88.6895 162.378 88.0147C163.21 87.3398 164.263 87.0096 165.324 87.09Z" fill="#808080" fill-opacity="0.19"/>
<path opacity="0.1" d="M226.617 306.41H207.945V323.49H226.617V306.41Z" fill="#808080" fill-opacity="0.19"/>
<path opacity="0.1" d="M292.951 483.65V488.62L246.595 489.88V483.65H292.951Z" fill="#808080" fill-opacity="0.19"/>
<path d="M374.762 312.36V480.56C374.751 481.587 374.351 482.569 373.647 483.305C372.942 484.04 371.987 484.472 370.979 484.51L182.64 489.61H182.59C181.564 489.597 180.585 489.177 179.859 488.439C179.134 487.701 178.721 486.704 178.709 485.66V312.36C178.721 311.316 179.134 310.319 179.859 309.581C180.585 308.843 181.564 308.423 182.59 308.41H370.881C371.907 308.423 372.886 308.843 373.612 309.581C374.337 310.319 374.75 311.316 374.762 312.36Z" fill="#65617D"/>
<path opacity="0.1" d="M182.64 308.41V489.61H182.59C181.564 489.597 180.585 489.177 179.859 488.439C179.134 487.701 178.721 486.704 178.709 485.66V312.36C178.721 311.316 179.134 310.319 179.859 309.581C180.585 308.843 181.564 308.423 182.59 308.41H182.64Z" fill="#808080" fill-opacity="0.19"/>
<path d="M191.238 319.15H365.672V467.4L191.238 471.4V319.15Z" fill="#D4DFEC"/>
<path d="M649.582 220L749.436 219" stroke="#6C63FF" stroke-width="2" stroke-miterlimit="10"/>
<path opacity="0.1" d="M729.114 306.41H710.442V323.83H729.114V306.41Z" fill="#808080" fill-opacity="0.19"/>
<path opacity="0.1" d="M713.557 483.65V490.06L667.202 488.8V483.65H713.557Z" fill="#808080" fill-opacity="0.19"/>
<path d="M774.732 312.36V485.66C774.719 486.712 774.299 487.717 773.563 488.456C772.827 489.196 771.835 489.61 770.801 489.61L582.422 484.51C581.414 484.472 580.459 484.04 579.754 483.305C579.05 482.569 578.65 481.587 578.639 480.56V312.36C578.651 311.316 579.064 310.319 579.789 309.581C580.515 308.843 581.494 308.423 582.52 308.41H770.811C771.843 308.413 772.833 308.828 773.566 309.567C774.3 310.306 774.719 311.31 774.732 312.36Z" fill="#65617D"/>
<path opacity="0.1" d="M774.732 312.36V485.66C774.719 486.712 774.299 487.717 773.563 488.456C772.827 489.196 771.835 489.61 770.801 489.61V308.41C771.835 308.41 772.827 308.824 773.563 309.564C774.299 310.303 774.719 311.308 774.732 312.36Z" fill="#808080" fill-opacity="0.19"/>
<path d="M762.202 319.15H587.768V467.4L762.202 471.4V319.15Z" fill="#D4DFEC"/>
<path d="M573.764 312.36V480.56C573.752 481.587 573.353 482.569 572.649 483.305C571.944 484.04 570.989 484.472 569.981 484.51L381.641 489.61C380.608 489.61 379.615 489.196 378.879 488.456C378.143 487.717 377.723 486.712 377.711 485.66V312.36C377.723 311.316 378.136 310.319 378.861 309.581C379.587 308.843 380.566 308.423 381.592 308.41H569.883C570.909 308.423 571.888 308.843 572.614 309.581C573.339 310.319 573.752 311.316 573.764 312.36Z" fill="#65617D"/>
<path d="M390.24 319.15H564.674V467.4L390.24 471.4V319.15Z" fill="#D4DFEC"/>
<path opacity="0.1" d="M848.19 533.65V546.65L698.895 548.05L697.303 548.08L640.56 548.61L639.204 548.63L621.957 548.78H621.446L516.314 549.77L343.738 551.4H343.59L299.712 551.82L299.24 551.83L104.267 553.65V538.65L303.279 537.32H303.751L344.033 537.04H344.219L622.409 535.17H622.694L622.861 535.16H623.323L628.03 535.13H629.465L702.668 534.63L706.992 534.61L707.955 534.6L848.19 533.65Z" fill="#808080" fill-opacity="0.19"/>
<path d="M478.843 323.49C506.702 323.49 529.286 300.509 529.286 272.16C529.286 243.811 506.702 220.83 478.843 220.83C450.984 220.83 428.4 243.811 428.4 272.16C428.4 300.509 450.984 323.49 478.843 323.49Z" fill="#FBBEBE"/>
<path d="M529.296 377.16C529.296 377.16 431.515 389.16 440.851 377.16C444.231 372.82 445.165 359.96 444.978 345.31C444.919 340.86 444.762 336.25 444.536 331.66C443.455 309.66 440.851 288.16 440.851 288.16C440.851 288.16 526.348 247.16 516.521 279.66C512.59 292.79 513.877 311.23 516.865 328.54C517.739 333.59 518.751 338.54 519.813 343.24C522.403 354.704 525.568 366.025 529.296 377.16Z" fill="#FBBEBE"/>
<path opacity="0.1" d="M529.296 377.16C529.296 377.16 431.515 389.16 440.851 377.16C444.231 372.82 445.165 359.96 444.978 345.31C459.886 338.83 478.853 343.66 478.853 343.66C498.822 339.61 511.627 340.4 519.813 343.24C522.403 354.704 525.568 366.025 529.296 377.16Z" fill="#808080" fill-opacity="0.19"/>
<path d="M343.698 552.53V551.69L516.285 549.78L621.436 548.78H621.731L621.623 550.26L621.77 548.78H621.957V548.61L623.303 535.16L623.815 530.07L623.972 528.48L624.109 527.15L630.183 506.54L636.256 485.96L641.366 468.63L649.169 442.15C649.169 442.15 644.747 431.65 642.29 428.65C639.833 425.65 637.376 405.15 637.376 405.15C637.376 405.15 616.405 384.82 607.236 382.48C603.393 381.48 595.807 380.15 587.748 378.48C584.732 377.86 581.636 377.2 578.658 376.48C576.978 376.09 575.327 375.68 573.745 375.27C570.665 374.487 567.63 373.533 564.654 372.41C563.094 371.833 561.609 371.064 560.232 370.12C553.009 364.73 534.907 364.12 534.21 364.12C534.208 364.097 534.208 364.073 534.21 364.05V363.96C534.235 363.54 534.235 363.12 534.21 362.7C534.21 362.3 534.21 361.83 534.121 361.3C534.121 361.14 534.121 360.97 534.052 360.8C534.003 360.44 533.944 360.06 533.856 359.66C533.826 359.481 533.787 359.304 533.738 359.13C533.453 357.925 533.041 356.755 532.509 355.64C532.441 355.48 532.352 355.31 532.274 355.15C531.792 354.226 531.233 353.346 530.603 352.52C530.475 352.35 530.338 352.17 530.19 352C529.385 351.034 528.49 350.15 527.517 349.36C527.252 349.15 526.977 348.93 526.692 348.73C526.533 348.599 526.365 348.479 526.191 348.37L525.316 347.79L524.5 347.31C523.783 346.91 523.026 346.52 522.201 346.15C521.945 346.03 521.67 345.92 521.395 345.81C521.12 345.7 520.687 345.53 520.324 345.39H520.265L519.528 345.09C518.967 344.9 518.398 344.73 517.798 344.56L516.884 344.32L515.901 344.09L514.919 343.88C513.936 343.68 512.884 343.5 511.784 343.36L510.663 343.22L509.514 343.1L508.325 343L506.634 342.9L504.669 342.83C496 342.829 487.356 343.764 478.882 345.62C472.995 344.287 466.965 343.722 460.938 343.94H460.083L459.1 344H458.471L457.203 344.12C456.781 344.12 456.348 344.21 455.926 344.27C455.503 344.33 455.061 344.38 454.638 344.45L453.99 344.56C453.351 344.67 452.702 344.79 452.024 344.93C451.808 344.97 451.592 345.02 451.376 345.08C450.521 345.27 449.666 345.5 448.821 345.76C448.398 345.88 447.975 346.02 447.553 346.17C447.337 346.23 447.13 346.31 446.924 346.39L446.295 346.62L445.676 346.87L444.939 347.17C444.565 347.33 444.202 347.5 443.838 347.68C443.632 347.77 443.425 347.87 443.229 347.98C443.032 348.09 442.826 348.18 442.639 348.29C440.417 349.458 438.363 350.932 436.536 352.67L436.035 353.16L435.544 353.67C435.377 353.84 435.22 354.02 435.062 354.2C434.422 354.912 433.824 355.664 433.274 356.45C433.117 356.66 432.969 356.87 432.822 357.09C432.198 358.026 431.634 359.001 431.131 360.01C431.004 360.25 430.886 360.5 430.768 360.74C429.966 362.429 429.309 364.186 428.802 365.99C428.619 366.657 428.452 367.323 428.301 367.99C428.301 367.99 407.497 377.33 390.24 384.09C385.651 385.89 381.327 387.52 377.711 388.75C376.659 389.11 375.676 389.44 374.762 389.75C372.779 390.479 370.717 390.963 368.62 391.19C367.632 391.206 366.646 391.3 365.672 391.47C357.742 392.78 344.15 398.47 342.667 404.18C342.546 404.636 342.512 405.111 342.568 405.58C342.568 405.58 342.568 405.65 342.568 405.69C343.551 412.69 336.672 411.69 336.672 411.69C336.672 411.69 334.215 430.19 330.776 435.19C328.289 438.79 326.589 446.82 326.373 452.88C326.249 454.768 326.395 456.664 326.805 458.51C326.805 458.56 326.805 458.61 326.805 458.65C327.198 459.99 326.255 463.65 324.653 468.34C322.914 473.49 320.378 479.89 317.941 485.93C314.266 495.05 310.807 503.33 310.59 505.15C310.502 505.96 310.246 507.41 309.893 509.28C308.458 516.9 305.274 531.41 303.702 537.28C302.532 541.66 300.832 547.66 299.662 551.78C299.662 551.9 299.594 552.02 299.564 552.13L343.62 551.69V552.53H343.757H343.698Z" fill="#6C63FF"/>
<path opacity="0.1" d="M359.776 434.66C359.776 434.66 415.791 464.16 435.937 460.66L359.776 434.66Z" fill="#808080" fill-opacity="0.19"/>
<path opacity="0.1" d="M473.772 422.66C473.772 422.66 528.313 440.66 546.494 443.16C564.674 445.66 473.772 422.66 473.772 422.66Z" fill="#808080" fill-opacity="0.19"/>
<path opacity="0.1" d="M534.269 364.74C505.77 370.08 452.113 368.93 428.92 368.12C437.421 337.12 478.872 347.66 478.872 347.66C530.18 337.24 534.111 358.86 534.269 364.74Z" fill="#808080" fill-opacity="0.19"/>
<path d="M534.269 362.74C505.77 368.08 452.113 366.93 428.92 366.12C437.421 335.12 478.872 345.66 478.872 345.66C530.18 335.24 534.111 356.86 534.269 362.74Z" fill="#6C63FF"/>
<path d="M685.549 499.41C685.549 499.41 719.119 494.16 719.778 509.16C720.436 524.16 702.659 534.64 702.659 534.64L685.549 499.41Z" fill="#FBBEBE"/>
<path opacity="0.1" d="M516.865 328.54C515.421 329.197 513.945 329.777 512.442 330.28C501.849 334 491.166 337.75 480.012 339.11C468.858 340.47 457.154 339.27 447.425 333.61C446.404 333.023 445.419 332.372 444.477 331.66C443.396 309.66 440.792 288.16 440.792 288.16C440.792 288.16 526.289 247.16 516.462 279.66C512.55 292.79 513.877 311.23 516.865 328.54Z" fill="#808080" fill-opacity="0.19"/>
<path d="M465.006 191.93C463.604 192.307 462.134 192.345 460.715 192.041C459.294 191.737 457.964 191.1 456.83 190.18L458.874 193.07C457.669 193.211 456.449 193.083 455.298 192.695C454.147 192.306 453.093 191.666 452.211 190.82C452.025 193.407 452.131 196.007 452.525 198.57C449.143 198.736 445.813 197.673 443.131 195.57C443.079 196.472 443.299 197.369 443.762 198.14C444.226 198.91 444.911 199.518 445.725 199.88C442.328 199.467 438.898 200.326 436.078 202.297C433.256 204.267 431.237 207.215 430.394 210.59L435.524 211.07C431.493 211.946 427.875 214.193 425.265 217.44C423.692 219.44 422.493 222 423.181 224.44C423.869 226.88 427.191 228.44 428.999 226.7C426.427 229.824 424.557 233.483 423.522 237.42C422.486 241.357 422.31 245.476 423.004 249.49C423.471 251.2 423.624 252.983 423.456 254.75C423.132 256.4 422.11 257.83 421.599 259.44C420.616 262.36 421.55 265.53 422.425 268.44L427.034 283.86C428.704 289.43 430.365 295.01 432.547 300.4C434.091 303.808 435.405 307.319 436.478 310.91C437.716 315.75 437.765 321.05 440.408 325.28C442.221 327.942 444.642 330.115 447.464 331.61C457.184 337.27 468.927 338.47 480.052 337.11C491.176 335.75 501.848 332 512.432 328.28C514.784 327.559 517.04 326.552 519.154 325.28C526.476 320.4 528.107 310.42 529.473 301.63C530.996 291.83 533.03 282.05 536.637 272.83C538.779 267.34 541.551 261.77 541.079 255.89C540.479 248.08 534.406 241.75 532.903 234.07C532.399 231.503 532.423 228.858 532.971 226.3C533.437 224.776 533.699 223.195 533.748 221.6C533.581 218.38 530.986 215.9 528.549 213.83C523.262 209.337 517.805 205.09 512.177 201.09C511.892 199.09 514.565 198.23 515.774 196.65C517.484 194.42 515.715 190.88 513.12 189.84C510.526 188.8 507.617 189.48 504.915 190.17C505.09 188.762 504.815 187.335 504.13 186.099C503.444 184.863 502.386 183.885 501.11 183.311C499.835 182.737 498.412 182.597 497.053 182.912C495.693 183.227 494.469 183.981 493.564 185.06C492.847 183.385 491.7 181.938 490.244 180.868C488.789 179.799 487.077 179.147 485.29 178.98C478.774 178.46 478.646 183.53 474.48 186.32C470.313 189.11 466.873 185.43 463.67 182.75C463.081 184.265 462.894 185.911 463.129 187.522C463.364 189.134 464.012 190.654 465.006 191.93Z" fill="#3F3D56"/>
<path d="M710.442 529.41C710.442 529.41 709.567 531.53 707.956 534.6C705.517 539.323 702.55 543.743 699.111 547.77L698.846 548.06H697.254L640.511 548.59H639.155L638.988 548.39L627.981 535.1L623.834 530.09L623.667 529.88L623.313 529.46L623.117 529.22L622.861 528.91L614.793 519.17L617.741 506.67L622.763 485.61L622.891 485.1L623.874 481.1L624.571 478.1L626.91 468.32L634.929 434.67L649.179 442.17L664.205 469.17L672.273 483.67H676.695C677.53 483.67 679.447 485.31 681.373 487.2C682.061 487.87 682.749 488.58 683.338 489.2C685.087 491.04 686.473 492.62 686.473 492.62C686.473 492.62 693.637 492.78 695.563 498.52C695.663 498.798 695.745 499.082 695.809 499.37C696.449 501.626 697.28 503.821 698.295 505.93C699.563 508.74 701.155 511.93 702.767 515.12C705.764 520.97 708.81 526.54 709.931 528.56L710.068 528.81L710.442 529.41Z" fill="#6C63FF"/>
<path opacity="0.1" d="M626.026 484.26L625.927 485.69V485.79L625.76 488.09L624.453 506.6L622.871 528.9L622.419 535.18L621.436 548.62V548.79L516.285 549.79L343.728 551.69V552.53H343.59V551.69V551.41L344.033 537.05L344.878 508.99L345.605 485.2L345.674 482.83C345.717 481.4 346.046 479.993 346.641 478.696C347.236 477.4 348.084 476.24 349.135 475.288C350.185 474.336 351.415 473.612 352.749 473.161C354.084 472.709 355.495 472.538 356.896 472.66C361.535 473.06 367.559 473.55 374.762 474.07L377.711 474.29C419.309 477.23 496.188 481.03 573.764 476.29C575.396 476.2 577.037 476.1 578.678 475.98C590.706 475.21 602.725 474.22 614.626 472.98C616.131 472.82 617.651 472.997 619.081 473.499C620.511 474.001 621.816 474.817 622.902 475.887C623.988 476.958 624.832 478.258 625.371 479.696C625.911 481.134 626.135 482.675 626.026 484.21V484.26Z" fill="#808080" fill-opacity="0.19"/>
<path d="M343.698 552.53V551.69L516.285 549.78L621.436 548.78H621.731V548.61L622.714 535.17L623.137 529.17L624.748 506.56L626.016 488.66V488.22C626.075 487.395 626.038 486.566 625.908 485.75C625.914 485.717 625.914 485.683 625.908 485.65C625.637 483.962 624.962 482.369 623.942 481.01C622.86 479.598 621.442 478.49 619.823 477.79C618.203 477.09 616.435 476.822 614.685 477.01C602.784 478.25 590.765 479.24 578.737 480.01C577.096 480.13 575.455 480.23 573.823 480.32C496.247 485.01 419.368 481.21 377.77 478.32L374.821 478.1C367.618 477.58 361.594 477.1 356.955 476.69C354.403 476.471 351.863 477.221 349.823 478.797C347.783 480.372 346.389 482.66 345.91 485.22C345.81 485.761 345.751 486.31 345.733 486.86L345.064 509.02L344.151 537.09L343.718 551.45V551.73V552.57L343.698 552.53Z" fill="#3F3D56"/>
<path opacity="0.1" d="M626.32 491.27L625.112 506.6L623.313 529.45L622.861 535.17L621.879 547.98L621.82 548.62V548.79L621.672 550.27L621.78 548.79H621.495L516.344 549.79L343.728 551.69V551.41L344.209 537.05L345.192 508.99L345.821 490.34C345.852 489.279 346.143 488.243 346.668 487.326C347.194 486.409 347.936 485.64 348.828 485.09C349.941 484.396 351.242 484.081 352.543 484.19C354.607 484.36 357.142 484.56 360.1 484.78C364.906 485.14 370.831 485.56 377.73 486C390.506 486.82 406.534 487.7 424.901 488.42C476.003 490.42 544.99 491.09 610.518 485.25C613.466 484.99 616.513 484.7 619.491 484.41C620.669 484.29 621.857 484.52 622.91 485.07C623.209 485.221 623.492 485.402 623.756 485.61C624.611 486.241 625.289 487.089 625.721 488.07C625.821 488.265 625.904 488.469 625.967 488.68C626.261 489.509 626.382 490.391 626.32 491.27Z" fill="#808080" fill-opacity="0.19"/>
<path opacity="0.1" d="M292.95 504.96V508.15C292.951 509.31 292.628 510.446 292.019 511.427C291.411 512.408 290.541 513.192 289.511 513.69L250.104 514.46C249.056 513.971 248.168 513.186 247.546 512.199C246.925 511.211 246.594 510.063 246.595 508.89V505.89L292.95 504.96Z" fill="#808080" fill-opacity="0.19"/>
<path d="M293.442 515.57L242.094 516.57V507.9L293.442 506.9V515.57Z" fill="#3F3D56"/>
<path opacity="0.1" d="M293.442 515.57L242.094 516.57V507.9L293.442 506.9V515.57Z" fill="#808080" fill-opacity="0.19"/>
<path d="M295.407 515.57L244.06 516.57V507.9L295.407 506.9V515.57Z" fill="#3F3D56"/>
<g opacity="0.1">
<path opacity="0.1" d="M465.409 188.65C464.449 187.381 463.811 185.89 463.552 184.31C463.315 185.855 463.456 187.435 463.964 188.91C464.452 188.864 464.935 188.777 465.409 188.65Z" fill="#808080" fill-opacity="0.19"/>
<path opacity="0.1" d="M452.928 195.29C452.743 194.064 452.622 192.829 452.565 191.59C452.565 192.82 452.565 194.06 452.565 195.3L452.928 195.29Z" fill="#808080" fill-opacity="0.19"/>
<path opacity="0.1" d="M533.021 228.66C533.075 227.769 533.193 226.883 533.374 226.01C533.839 224.489 534.103 222.912 534.16 221.32C534.139 220.963 534.086 220.608 534.003 220.26C533.836 221.18 533.571 222.1 533.374 223.01C532.982 224.865 532.862 226.769 533.021 228.66Z" fill="#808080" fill-opacity="0.19"/>
<path opacity="0.1" d="M512.58 197.76L513.651 198.55C514.554 197.885 515.399 197.143 516.177 196.33C516.546 195.81 516.775 195.199 516.841 194.561C516.907 193.922 516.807 193.277 516.55 192.69C516.452 192.918 516.327 193.133 516.177 193.33C514.968 194.91 512.295 195.78 512.58 197.76Z" fill="#808080" fill-opacity="0.19"/>
<path opacity="0.1" d="M431.829 207.38C431.471 208.109 431.185 208.873 430.974 209.66C432.511 208.787 434.167 208.15 435.888 207.77L431.829 207.38Z" fill="#808080" fill-opacity="0.19"/>
<path opacity="0.1" d="M445.381 196.5C444.735 196.138 444.118 195.727 443.534 195.27C443.509 195.666 443.538 196.063 443.622 196.45C444.209 196.422 444.796 196.438 445.381 196.5Z" fill="#808080" fill-opacity="0.19"/>
<path opacity="0.1" d="M541.462 255.42C541.059 260.27 538.838 264.94 537.04 269.54C533.433 278.76 531.399 288.54 529.876 298.35C528.51 307.14 526.928 317.12 519.557 321.99C517.451 323.27 515.197 324.278 512.845 324.99C502.251 328.72 491.569 332.46 480.415 333.82C469.261 335.18 457.557 333.99 447.828 328.33C445.008 326.832 442.586 324.66 440.772 322C438.148 317.77 438.099 312.47 436.841 307.63C435.769 304.036 434.455 300.521 432.91 297.11C430.738 291.73 429.068 286.11 427.407 280.58C425.867 275.44 424.331 270.297 422.798 265.15C422.293 263.602 421.918 262.013 421.678 260.4C421.294 262.96 422.041 265.64 422.798 268.15C424.331 273.303 425.867 278.447 427.407 283.58C429.068 289.15 430.738 294.73 432.91 300.11C434.455 303.521 435.769 307.036 436.841 310.63C438.079 315.47 438.129 320.77 440.772 325C442.586 327.66 445.008 329.832 447.828 331.33C457.557 336.99 469.291 338.18 480.415 336.82C491.54 335.46 502.212 331.72 512.845 327.99C515.197 327.278 517.451 326.27 519.557 324.99C526.878 320.12 528.51 310.14 529.876 301.35C531.399 291.54 533.433 281.76 537.04 272.54C539.182 267.06 541.954 261.49 541.482 255.6C541.482 255.54 541.462 255.48 541.462 255.42Z" fill="#808080" fill-opacity="0.19"/>
<path opacity="0.1" d="M423.84 251.55C423.84 251.55 423.84 251.48 423.84 251.44C424.017 249.677 423.863 247.895 423.388 246.19C423.192 245.093 423.063 243.984 423.004 242.87C422.891 244.985 423.02 247.106 423.388 249.19C423.545 249.97 423.722 250.76 423.84 251.55Z" fill="#808080" fill-opacity="0.19"/>
<path opacity="0.1" d="M426.837 227.09C427.593 225.798 428.451 224.571 429.402 223.42C427.604 225.17 424.282 223.61 423.584 221.18C423.327 222.163 423.327 223.197 423.584 224.18C423.826 224.914 424.254 225.569 424.825 226.08C425.397 226.592 426.091 226.94 426.837 227.09Z" fill="#808080" fill-opacity="0.19"/>
</g>
<path opacity="0.1" d="M672.283 483.66C672.283 483.66 675.398 495.16 672.283 505.16C669.167 515.16 672.283 483.66 672.283 483.66Z" fill="#808080" fill-opacity="0.19"/>
<path opacity="0.1" d="M685.549 495.39C685.549 495.39 686.856 509.99 683.908 512.58C680.96 515.17 685.549 495.39 685.549 495.39Z" fill="#808080" fill-opacity="0.19"/>
<path d="M195.553 342.86L295.407 341.86" stroke="#6C63FF" stroke-width="2" stroke-miterlimit="10"/>
<path d="M195.553 355.33L295.407 354.34" stroke="#6C63FF" stroke-width="2" stroke-miterlimit="10"/>
<path d="M195.553 367.81L295.407 366.81" stroke="#6C63FF" stroke-width="2" stroke-miterlimit="10"/>
<path d="M178.28 116.849L191.318 125.475L190.454 129.984L173.631 117.599L174.274 114.24L194.432 109.211L193.568 113.72L178.28 116.849Z" fill="#050772"/>
<path d="M324.777 128.634L311.111 121.082L311.622 116.518L329.354 127.514L328.973 130.914L309.268 137.546L309.779 132.981L324.777 128.634Z" fill="#050772"/>
<path d="M226.126 132.781L222.99 132.495L223.97 121.367L212.043 120.279L211.063 131.407L207.943 131.123L210.063 107.047L213.184 107.332L212.272 117.683L224.199 118.771L225.111 108.42L228.247 108.706L226.126 132.781ZM249.418 113.271L241.813 112.577L239.922 134.04L236.818 133.757L238.709 112.294L231.12 111.602L231.351 108.989L249.648 110.658L249.418 113.271ZM257.188 111.346L263.192 131.696L272.657 112.757L276.703 113.126L274.582 137.202L271.462 136.917L272.289 127.542L273.473 117.449L263.988 136.235L261.599 136.017L255.561 115.865L254.983 125.963L254.156 135.338L251.037 135.054L253.158 110.979L257.188 111.346ZM283.456 135.394L294.668 136.417L294.439 139.013L280.092 137.704L282.212 113.629L285.348 113.915L283.456 135.394Z" fill="#EA4949"/>
<path d="M182.92 147.435L186.971 149.509L186.864 150.844L181.596 147.804L181.676 146.809L187.361 144.692L187.252 146.027L182.92 147.435ZM181.632 163.381L185.684 165.455L185.577 166.79L180.309 163.75L180.389 162.756L186.073 160.638L185.965 161.974L181.632 163.381Z" fill="#2D2AC9"/>
<path d="M190.474 145.96C191.078 145.32 191.82 145.037 192.699 145.111C194.23 145.239 194.931 146.182 194.803 147.941L194.41 152.812L193.17 152.709L193.564 147.831C193.603 147.299 193.514 146.896 193.298 146.622C193.087 146.348 192.733 146.19 192.238 146.149C191.836 146.115 191.474 146.195 191.154 146.388C190.833 146.58 190.573 146.847 190.375 147.187L189.95 152.44L188.712 152.336L189.557 141.871L190.795 141.975L190.474 145.96ZM198.684 143.951L198.54 145.736L199.892 145.849L199.814 146.823L198.461 146.71L198.092 151.282C198.068 151.577 198.111 151.805 198.219 151.965C198.328 152.12 198.527 152.21 198.817 152.234C198.96 152.246 199.158 152.235 199.413 152.202L199.33 153.224C198.997 153.287 198.677 153.306 198.369 153.28C197.816 153.234 197.412 153.029 197.158 152.665C196.904 152.301 196.803 151.805 196.854 151.178L197.222 146.607L195.903 146.497L195.982 145.522L197.301 145.633L197.445 143.848L198.684 143.951ZM202.51 146.068L202.478 146.888C203.06 146.297 203.802 146.039 204.704 146.114C205.717 146.199 206.374 146.652 206.677 147.473C206.946 147.139 207.282 146.878 207.683 146.693C208.089 146.507 208.556 146.436 209.083 146.48C210.672 146.613 211.41 147.537 211.299 149.251L210.9 154.191L209.662 154.087L210.054 149.223C210.097 148.696 210.01 148.293 209.794 148.014C209.579 147.731 209.193 147.566 208.635 147.52C208.175 147.481 207.782 147.59 207.455 147.846C207.13 148.098 206.923 148.458 206.836 148.926L206.441 153.818L205.196 153.714L205.585 148.884C205.672 147.812 205.2 147.233 204.169 147.146C203.356 147.078 202.773 147.384 202.416 148.063L201.982 153.445L200.743 153.342L201.338 145.97L202.51 146.068ZM214.12 154.46L212.882 154.356L213.727 143.892L214.965 143.995L214.12 154.46ZM189.844 159.266L189.7 161.051L191.053 161.164L190.974 162.138L189.622 162.025L189.252 166.597C189.229 166.892 189.271 167.12 189.379 167.28C189.488 167.435 189.688 167.525 189.978 167.549C190.12 167.561 190.319 167.55 190.573 167.517L190.491 168.539C190.157 168.602 189.837 168.621 189.529 168.595C188.975 168.549 188.572 168.344 188.319 167.98C188.064 167.616 187.963 167.12 188.014 166.493L188.383 161.922L187.064 161.812L187.142 160.837L188.461 160.948L188.606 159.163L189.844 159.266ZM193.256 168.77L192.018 168.666L192.612 161.295L193.851 161.398L193.256 168.77ZM192.67 159.331C192.686 159.126 192.761 158.959 192.892 158.828C193.029 158.698 193.218 158.643 193.458 158.663C193.699 158.683 193.877 158.769 193.991 158.92C194.104 159.071 194.153 159.249 194.136 159.453C194.12 159.658 194.043 159.823 193.907 159.949C193.772 160.075 193.583 160.127 193.342 160.107C193.101 160.087 192.924 160.004 192.81 159.857C192.7 159.711 192.654 159.535 192.67 159.331ZM197.664 159.92L197.52 161.705L198.872 161.818L198.794 162.792L197.441 162.679L197.073 167.251C197.048 167.546 197.091 167.773 197.2 167.933C197.308 168.089 197.507 168.179 197.798 168.203C197.941 168.215 198.139 168.204 198.394 168.17L198.311 169.192C197.978 169.256 197.658 169.275 197.349 169.249C196.796 169.203 196.392 168.998 196.138 168.634C195.885 168.269 195.783 167.774 195.834 167.147L196.203 162.576L194.884 162.465L194.963 161.491L196.282 161.601L196.425 159.816L197.664 159.92ZM201.076 169.423L199.837 169.32L200.682 158.855L201.921 158.959L201.076 169.423ZM206.06 169.977C205.078 169.895 204.306 169.501 203.743 168.796C203.179 168.086 202.943 167.181 203.031 166.082L203.05 165.85C203.109 165.119 203.297 164.479 203.616 163.929C203.939 163.375 204.36 162.958 204.877 162.676C205.398 162.391 205.947 162.272 206.523 162.32C207.465 162.399 208.172 162.776 208.642 163.451C209.114 164.126 209.302 165.051 209.207 166.228L209.164 166.752L204.257 166.342C204.216 167.07 204.376 167.676 204.737 168.159C205.103 168.638 205.594 168.903 206.21 168.954C206.648 168.991 207.025 168.931 207.343 168.774C207.662 168.618 207.947 168.4 208.198 168.119L208.907 168.782C208.223 169.68 207.274 170.079 206.06 169.977ZM206.439 163.356C205.939 163.314 205.505 163.465 205.135 163.809C204.767 164.149 204.515 164.649 204.38 165.31L208.01 165.613L208.017 165.518C208.033 164.875 207.903 164.365 207.628 163.99C207.353 163.611 206.957 163.399 206.439 163.356ZM225.186 171.439L223.893 171.331L224.264 166.746L219.349 166.335L218.98 170.92L217.694 170.813L218.494 160.893L219.78 161L219.436 165.265L224.35 165.676L224.694 161.411L225.987 161.519L225.186 171.439ZM234.717 163.333L231.584 163.071L230.87 171.914L229.591 171.807L230.306 162.964L227.179 162.703L227.265 161.626L234.805 162.256L234.717 163.333ZM237.911 162.516L240.444 170.876L244.285 163.049L245.952 163.188L245.152 173.108L243.865 173L244.178 169.137L244.635 164.978L240.786 172.743L239.802 172.661L237.255 164.382L237.047 168.541L236.736 172.404L235.45 172.297L236.25 162.377L237.911 162.516ZM248.8 172.336L253.419 172.722L253.333 173.792L247.421 173.298L248.222 163.378L249.514 163.486L248.8 172.336ZM269.652 165.937L269.508 167.722L270.861 167.836L270.782 168.81L269.429 168.697L269.06 173.268C269.037 173.563 269.079 173.791 269.187 173.951C269.296 174.106 269.496 174.196 269.786 174.221C269.928 174.232 270.127 174.222 270.381 174.188L270.299 175.21C269.965 175.274 269.645 175.293 269.338 175.267C268.783 175.221 268.38 175.015 268.126 174.651C267.872 174.287 267.771 173.792 267.821 173.165L268.191 168.593L266.872 168.483L266.951 167.509L268.269 167.619L268.414 165.834L269.652 165.937ZM273.064 175.441L271.826 175.338L272.42 167.966L273.659 168.069L273.064 175.441ZM272.478 166.002C272.494 165.798 272.569 165.63 272.7 165.5C272.837 165.369 273.026 165.314 273.266 165.334C273.507 165.354 273.685 165.44 273.798 165.591C273.912 165.743 273.96 165.92 273.945 166.125C273.928 166.329 273.851 166.494 273.716 166.62C273.579 166.746 273.391 166.799 273.15 166.779C272.909 166.758 272.731 166.675 272.617 166.528C272.508 166.382 272.462 166.207 272.478 166.002ZM277.473 166.591L277.328 168.376L278.68 168.489L278.602 169.463L277.249 169.35L276.88 173.922C276.856 174.217 276.899 174.445 277.008 174.605C277.116 174.76 277.315 174.85 277.605 174.874C277.749 174.886 277.947 174.875 278.202 174.842L278.119 175.864C277.786 175.927 277.465 175.946 277.157 175.92C276.604 175.874 276.2 175.669 275.946 175.305C275.693 174.941 275.592 174.445 275.642 173.818L276.011 169.247L274.691 169.137L274.77 168.162L276.09 168.273L276.233 166.488L277.473 166.591ZM280.884 176.095L279.645 175.991L280.49 165.527L281.729 165.63L280.884 176.095ZM285.868 176.649C284.886 176.567 284.113 176.173 283.55 175.467C282.988 174.757 282.75 173.852 282.839 172.753L282.858 172.522C282.917 171.79 283.106 171.15 283.424 170.6C283.747 170.047 284.168 169.629 284.685 169.348C285.207 169.062 285.755 168.943 286.331 168.992C287.272 169.07 287.979 169.447 288.451 170.122C288.921 170.797 289.11 171.723 289.015 172.899L288.972 173.424L284.065 173.014C284.024 173.742 284.185 174.347 284.545 174.83C284.911 175.309 285.402 175.574 286.017 175.625C286.456 175.662 286.833 175.602 287.151 175.446C287.47 175.29 287.755 175.071 288.006 174.79L288.714 175.453C288.031 176.352 287.082 176.75 285.868 176.649ZM286.247 170.027C285.747 169.985 285.313 170.136 284.943 170.481C284.575 170.82 284.323 171.32 284.188 171.981L287.818 172.285L287.826 172.189C287.841 171.546 287.712 171.037 287.436 170.662C287.161 170.282 286.765 170.07 286.247 170.027ZM192.561 181.137C192.47 182.264 192.142 183.148 191.578 183.792C191.014 184.431 190.304 184.714 189.447 184.642C188.532 184.566 187.851 184.178 187.405 183.477L187.275 184.324L186.137 184.229L186.982 173.764L188.22 173.867L187.905 177.771C188.456 177.182 189.172 176.924 190.05 176.997C190.93 177.071 191.592 177.467 192.037 178.185C192.487 178.904 192.664 179.852 192.57 181.028L192.561 181.137ZM191.334 180.891C191.403 180.032 191.293 179.355 191.005 178.86C190.718 178.365 190.267 178.092 189.656 178.041C188.84 177.973 188.221 178.31 187.802 179.052L187.544 182.241C187.862 183.044 188.422 183.48 189.226 183.547C189.819 183.597 190.3 183.401 190.667 182.961C191.036 182.521 191.258 181.831 191.334 180.891ZM193.812 181.091C193.87 180.369 194.061 179.731 194.384 179.177C194.712 178.624 195.136 178.211 195.657 177.939C196.182 177.667 196.764 177.558 197.402 177.612C198.389 177.694 199.157 178.108 199.708 178.854C200.264 179.6 200.495 180.55 200.401 181.703L200.394 181.792C200.336 182.51 200.149 183.143 199.829 183.693C199.516 184.238 199.094 184.649 198.565 184.924C198.039 185.201 197.45 185.311 196.799 185.257C195.817 185.175 195.047 184.761 194.492 184.015C193.942 183.269 193.712 182.324 193.804 181.179L193.812 181.091ZM195.044 181.345C194.979 182.162 195.111 182.834 195.442 183.36C195.777 183.887 196.256 184.176 196.881 184.228C197.511 184.281 198.031 184.073 198.442 183.604C198.853 183.131 199.095 182.442 199.168 181.539C199.233 180.73 199.096 180.06 198.757 179.529C198.423 178.993 197.944 178.7 197.319 178.647C196.707 178.596 196.194 178.802 195.779 179.266C195.364 179.73 195.119 180.423 195.044 181.345ZM201.658 181.754C201.75 180.623 202.086 179.736 202.668 179.094C203.25 178.448 203.968 178.161 204.821 178.232C205.669 178.303 206.316 178.654 206.764 179.286L207.074 175.443L208.313 175.547L207.468 186.012L206.33 185.917L206.334 185.121C205.789 185.698 205.074 185.949 204.19 185.875C203.35 185.805 202.694 185.398 202.219 184.654C201.749 183.91 201.559 182.975 201.65 181.849L201.658 181.754ZM202.885 182C202.818 182.836 202.935 183.504 203.235 184.005C203.536 184.506 203.986 184.781 204.585 184.831C205.37 184.897 205.972 184.586 206.392 183.898L206.665 180.512C206.351 179.786 205.81 179.391 205.042 179.327C204.435 179.276 203.943 179.475 203.565 179.924C203.187 180.372 202.96 181.065 202.885 182ZM211.916 184.525L214.049 179.14L215.375 179.251L211.775 187.517C211.225 188.706 210.46 189.259 209.478 189.177L209.245 189.137L208.79 189.01L208.872 187.988L209.206 188.043C209.625 188.078 209.957 188.019 210.204 187.866C210.454 187.713 210.674 187.414 210.862 186.968L211.198 186.241L209.202 178.735L210.554 178.848L211.916 184.525ZM185.517 191.328L182.383 191.066L181.67 199.909L180.391 199.802L181.105 190.959L177.977 190.698L178.065 189.621L185.603 190.251L185.517 191.328ZM187.817 193.9C188.421 193.26 189.163 192.977 190.042 193.05C191.573 193.178 192.274 194.122 192.145 195.881L191.752 200.752L190.514 200.648L190.908 195.77C190.947 195.238 190.857 194.836 190.642 194.561C190.43 194.288 190.076 194.13 189.581 194.089C189.18 194.055 188.818 194.135 188.497 194.327C188.175 194.52 187.916 194.786 187.717 195.126L187.294 200.379L186.055 200.276L186.9 189.811L188.138 189.914L187.817 193.9ZM194.953 201.019L193.714 200.916L194.309 193.544L195.548 193.648L194.953 201.019ZM194.366 191.581C194.383 191.376 194.458 191.209 194.589 191.078C194.726 190.947 194.915 190.892 195.156 190.913C195.396 190.933 195.574 191.018 195.687 191.17C195.801 191.321 195.849 191.499 195.834 191.703C195.817 191.907 195.74 192.073 195.605 192.198C195.468 192.324 195.28 192.377 195.039 192.357C194.798 192.337 194.62 192.253 194.506 192.107C194.397 191.96 194.351 191.785 194.366 191.581ZM201.317 199.583C201.345 199.242 201.239 198.968 201 198.761C200.765 198.549 200.338 198.349 199.72 198.16C199.106 197.971 198.622 197.766 198.267 197.545C197.916 197.323 197.662 197.073 197.505 196.795C197.352 196.517 197.29 196.196 197.319 195.833C197.369 195.229 197.66 194.739 198.193 194.363C198.732 193.987 199.391 193.832 200.172 193.897C200.994 193.966 201.642 194.237 202.115 194.711C202.594 195.186 202.806 195.759 202.751 196.431L201.506 196.327C201.534 195.982 201.413 195.672 201.143 195.398C200.877 195.124 200.526 194.969 200.089 194.933C199.638 194.895 199.277 194.965 199.007 195.144C198.736 195.323 198.587 195.573 198.562 195.896C198.537 196.2 198.636 196.439 198.86 196.613C199.085 196.788 199.499 196.971 200.104 197.163C200.713 197.356 201.201 197.566 201.57 197.793C201.937 198.021 202.202 198.281 202.363 198.573C202.528 198.861 202.595 199.203 202.563 199.598C202.51 200.256 202.209 200.764 201.658 201.12C201.109 201.472 200.421 201.614 199.595 201.545C199.015 201.496 198.51 201.349 198.08 201.103C197.651 200.856 197.324 200.536 197.099 200.143C196.88 199.745 196.788 199.328 196.823 198.892L198.062 198.995C198.051 199.42 198.188 199.769 198.476 200.045C198.769 200.316 199.169 200.473 199.678 200.516C200.147 200.555 200.529 200.491 200.826 200.324C201.128 200.152 201.292 199.905 201.317 199.583ZM208.758 202.173L207.52 202.07L208.115 194.698L209.354 194.802L208.758 202.173ZM208.173 192.735C208.189 192.53 208.263 192.363 208.395 192.232C208.531 192.102 208.72 192.046 208.961 192.067C209.203 192.087 209.379 192.172 209.493 192.324C209.607 192.475 209.656 192.653 209.639 192.857C209.622 193.062 209.547 193.227 209.41 193.352C209.274 193.478 209.086 193.531 208.845 193.511C208.603 193.491 208.426 193.407 208.312 193.261C208.202 193.114 208.156 192.939 208.173 192.735ZM215.124 200.737C215.151 200.396 215.045 200.122 214.805 199.915C214.57 199.703 214.144 199.503 213.526 199.314C212.912 199.125 212.428 198.92 212.072 198.699C211.721 198.477 211.468 198.227 211.311 197.949C211.158 197.671 211.096 197.35 211.126 196.987C211.174 196.383 211.466 195.893 211.999 195.517C212.537 195.141 213.196 194.986 213.978 195.051C214.799 195.12 215.447 195.391 215.921 195.865C216.399 196.34 216.611 196.913 216.557 197.585L215.312 197.481C215.34 197.136 215.219 196.826 214.949 196.552C214.683 196.278 214.331 196.123 213.894 196.087C213.443 196.049 213.082 196.12 212.812 196.298C212.542 196.477 212.394 196.727 212.367 197.05C212.342 197.354 212.443 197.593 212.667 197.767C212.891 197.942 213.305 198.125 213.91 198.317C214.519 198.51 215.008 198.72 215.375 198.947C215.744 199.175 216.008 199.435 216.168 199.727C216.334 200.015 216.401 200.357 216.369 200.752C216.316 201.411 216.014 201.918 215.464 202.274C214.914 202.626 214.226 202.768 213.401 202.699C212.821 202.65 212.316 202.503 211.886 202.257C211.457 202.01 211.13 201.69 210.906 201.297C210.686 200.899 210.594 200.482 210.629 200.046L211.868 200.149C211.856 200.574 211.994 200.924 212.281 201.199C212.574 201.47 212.975 201.627 213.484 201.67C213.953 201.709 214.335 201.645 214.632 201.478C214.933 201.306 215.097 201.059 215.124 200.737ZM228.905 203.858L227.613 203.75L227.982 199.164L223.069 198.754L222.698 203.339L221.413 203.231L222.214 193.312L223.499 193.419L223.154 197.684L228.069 198.095L228.414 193.83L229.705 193.938L228.905 203.858ZM238.437 195.751L235.303 195.489L234.589 204.333L233.31 204.226L234.024 195.383L230.897 195.121L230.985 194.045L238.523 194.675L238.437 195.751ZM241.63 194.935L244.163 203.295L248.004 195.467L249.671 195.607L248.87 205.527L247.585 205.419L247.896 201.556L248.353 197.397L244.505 205.162L243.52 205.079L240.974 196.8L240.766 200.96L240.454 204.823L239.169 204.716L239.97 194.796L241.63 194.935ZM252.518 204.755L257.138 205.141L257.052 206.21L251.139 205.716L251.94 195.797L253.233 195.905L252.518 204.755ZM263.337 203.917L262.219 203.823L262.707 196.696L264.005 196.805L263.337 203.917ZM261.91 205.979C261.927 205.774 262.001 205.609 262.132 205.483C262.269 205.352 262.457 205.297 262.698 205.317C262.939 205.338 263.117 205.423 263.23 205.575C263.344 205.721 263.393 205.897 263.376 206.101C263.36 206.306 263.284 206.471 263.147 206.597C263.012 206.718 262.824 206.768 262.583 206.748C262.342 206.728 262.164 206.647 262.05 206.505C261.941 206.358 261.893 206.183 261.91 205.979ZM195.637 213.502C195.547 214.629 195.218 215.513 194.654 216.157C194.09 216.795 193.38 217.079 192.523 217.007C191.608 216.931 190.927 216.542 190.481 215.842L190.351 216.689L189.213 216.594L190.058 206.129L191.296 206.232L190.982 210.136C191.532 209.547 192.248 209.289 193.127 209.362C194.006 209.436 194.668 209.832 195.113 210.55C195.563 211.269 195.741 212.217 195.646 213.393L195.637 213.502ZM194.41 213.256C194.479 212.397 194.37 211.72 194.081 211.225C193.793 210.73 193.344 210.457 192.732 210.406C191.915 210.338 191.297 210.675 190.878 211.417L190.62 214.605C190.938 215.409 191.498 215.845 192.302 215.912C192.895 215.962 193.376 215.766 193.744 215.326C194.112 214.886 194.334 214.196 194.41 213.256ZM196.888 213.456C196.946 212.734 197.137 212.096 197.46 211.542C197.788 210.989 198.212 210.576 198.733 210.304C199.258 210.032 199.84 209.923 200.478 209.977C201.465 210.059 202.233 210.473 202.784 211.219C203.34 211.965 203.571 212.915 203.478 214.068L203.47 214.157C203.412 214.875 203.225 215.508 202.906 216.058C202.593 216.603 202.17 217.014 201.641 217.289C201.115 217.566 200.526 217.676 199.875 217.622C198.893 217.54 198.124 217.126 197.568 216.38C197.018 215.634 196.788 214.689 196.88 213.544L196.888 213.456ZM198.121 213.71C198.055 214.527 198.187 215.199 198.517 215.725C198.853 216.252 199.333 216.541 199.957 216.593C200.587 216.646 201.107 216.438 201.518 215.969C201.929 215.496 202.171 214.807 202.244 213.904C202.31 213.095 202.172 212.425 201.833 211.894C201.499 211.358 201.019 211.064 200.394 211.012C199.783 210.961 199.27 211.167 198.855 211.631C198.44 212.095 198.195 212.788 198.121 213.71ZM204.734 214.119C204.826 212.988 205.163 212.101 205.744 211.459C206.326 210.813 207.045 210.525 207.897 210.597C208.745 210.668 209.392 211.019 209.84 211.651L210.151 207.808L211.389 207.912L210.544 218.377L209.406 218.282L209.41 217.486C208.865 218.062 208.15 218.314 207.267 218.24C206.427 218.17 205.77 217.763 205.295 217.019C204.826 216.275 204.636 215.34 204.726 214.214L204.734 214.119ZM205.962 214.365C205.894 215.201 206.011 215.869 206.311 216.37C206.613 216.871 207.062 217.146 207.661 217.196C208.446 217.262 209.048 216.951 209.468 216.263L209.741 212.877C209.427 212.151 208.886 211.756 208.119 211.692C207.511 211.641 207.019 211.84 206.642 212.289C206.263 212.737 206.037 213.43 205.962 214.365ZM214.992 216.89L217.125 211.505L218.451 211.616L214.851 219.882C214.302 221.071 213.535 221.624 212.554 221.542L212.321 221.502L211.866 221.375L211.948 220.353L212.281 220.408C212.701 220.443 213.033 220.384 213.28 220.231C213.531 220.078 213.75 219.779 213.938 219.333L214.273 218.606L212.278 211.1L213.63 211.213L214.992 216.89ZM189.688 226.164C190.292 225.524 191.034 225.241 191.914 225.315C193.445 225.443 194.145 226.386 194.017 228.145L193.623 233.016L192.385 232.913L192.778 228.034C192.818 227.503 192.728 227.1 192.512 226.826C192.301 226.552 191.947 226.394 191.452 226.353C191.05 226.319 190.689 226.399 190.368 226.591C190.046 226.784 189.787 227.05 189.588 227.391L189.165 232.643L187.926 232.54L188.771 222.075L190.009 222.179L189.688 226.164ZM197.898 224.155L197.754 225.94L199.106 226.053L199.027 227.027L197.675 226.914L197.306 231.486C197.282 231.781 197.324 232.009 197.433 232.169C197.542 232.324 197.741 232.414 198.031 232.438C198.174 232.45 198.373 232.439 198.628 232.406L198.545 233.427C198.212 233.491 197.89 233.51 197.583 233.484C197.03 233.438 196.626 233.233 196.372 232.869C196.119 232.504 196.017 232.009 196.068 231.382L196.437 226.811L195.117 226.7L195.196 225.726L196.516 225.836L196.659 224.051L197.898 224.155ZM201.724 226.272L201.692 227.092C202.274 226.501 203.016 226.243 203.918 226.318C204.931 226.403 205.589 226.856 205.891 227.676C206.161 227.342 206.496 227.082 206.897 226.896C207.304 226.711 207.77 226.64 208.297 226.684C209.886 226.817 210.625 227.741 210.513 229.455L210.115 234.395L208.875 234.291L209.268 229.427C209.311 228.9 209.224 228.497 209.008 228.218C208.793 227.935 208.407 227.77 207.848 227.723C207.388 227.685 206.996 227.794 206.67 228.05C206.344 228.302 206.137 228.662 206.05 229.13L205.655 234.022L204.41 233.918L204.8 229.087C204.886 228.015 204.414 227.436 203.383 227.35C202.57 227.282 201.986 227.588 201.631 228.267L201.196 233.649L199.957 233.546L200.553 226.174L201.724 226.272ZM213.335 234.664L212.096 234.56L212.941 224.096L214.179 224.199L213.335 234.664Z" fill="#EC2F46"/>
<path d="M220.852 150.564L216.569 148.43L216.673 147.135L222.183 150.189L222.103 151.183L216.177 153.288L216.282 151.979L220.852 150.564ZM215.078 166.136L210.796 164.001L210.9 162.707L216.41 165.76L216.329 166.755L210.404 168.859L210.509 167.551L215.078 166.136ZM255.79 169.58L259.841 171.654L259.733 172.989L254.465 169.949L254.546 168.955L260.231 166.837L260.123 168.173L255.79 169.58ZM261.761 175.354L260.696 175.265L265.637 164.834L266.694 164.922L261.761 175.354ZM294.886 172.807L290.604 170.672L290.708 169.378L296.218 172.431L296.137 173.426L290.212 175.53L290.317 174.222L294.886 172.807ZM180.345 179.327L184.397 181.401L184.29 182.737L179.021 179.697L179.102 178.702L184.786 176.585L184.678 177.92L180.345 179.327ZM220.634 182.654L216.351 180.519L216.455 179.225L221.965 182.278L221.885 183.273L215.959 185.377L216.064 184.069L220.634 182.654ZM177.77 211.22L181.823 213.294L181.715 214.629L176.446 211.589L176.527 210.595L182.211 208.477L182.104 209.812L177.77 211.22ZM183.741 216.994L182.677 216.905L187.617 206.473L188.675 206.562L183.741 216.994ZM223.71 215.019L219.427 212.884L219.531 211.59L225.041 214.643L224.961 215.638L219.035 217.742L219.14 216.434L223.71 215.019ZM176.483 227.166L180.536 229.24L180.427 230.576L175.159 227.536L175.24 226.541L180.924 224.423L180.817 225.759L176.483 227.166ZM182.454 232.94L181.39 232.851L186.33 222.42L187.388 222.508L182.454 232.94ZM220.066 230.768L215.783 228.634L215.887 227.339L221.397 230.392L221.317 231.387L215.391 233.491L215.496 232.183L220.066 230.768Z" fill="#2D2AC9"/>
<path d="M460.382 129.051L471.797 133.745V137.382L456.881 130.35V127.641L471.797 120.627V124.264L460.382 129.051ZM477.795 143.319H474.896L485.982 113.984H488.864L477.795 143.319ZM504.454 128.939L492.402 124.134V120.608L507.973 127.622V130.331L492.402 137.363V133.801L504.454 128.939Z" fill="#050772"/>
<path d="M475.296 162.36C475.08 164.24 474.396 165.693 473.244 166.718C472.101 167.736 470.577 168.244 468.675 168.244C466.611 168.244 464.955 167.491 463.708 165.986C462.468 164.48 461.849 162.466 461.849 159.943V158.234C461.849 156.582 462.137 155.13 462.712 153.876C463.296 152.623 464.12 151.663 465.183 150.996C466.247 150.32 467.479 149.982 468.878 149.982C470.733 149.982 472.221 150.511 473.341 151.569C474.46 152.619 475.112 154.076 475.296 155.939H472.981C472.78 154.523 472.345 153.498 471.673 152.863C471.01 152.229 470.078 151.911 468.878 151.911C467.407 151.911 466.251 152.465 465.411 153.571C464.58 154.678 464.164 156.253 464.164 158.295V160.017C464.164 161.945 464.56 163.479 465.351 164.619C466.143 165.758 467.251 166.328 468.675 166.328C469.954 166.328 470.934 166.035 471.613 165.449C472.301 164.855 472.757 163.825 472.981 162.36H475.296ZM483.597 160.078C481.622 159.5 480.182 158.792 479.279 157.954C478.383 157.107 477.935 156.066 477.935 154.829C477.935 153.429 478.483 152.273 479.579 151.362C480.683 150.442 482.114 149.982 483.873 149.982C485.073 149.982 486.141 150.218 487.076 150.69C488.02 151.162 488.748 151.813 489.26 152.644C489.78 153.474 490.039 154.381 490.039 155.366H487.724C487.724 154.292 487.389 153.449 486.716 152.839C486.044 152.22 485.097 151.911 483.873 151.911C482.737 151.911 481.85 152.167 481.21 152.68C480.578 153.185 480.263 153.889 480.263 154.792C480.263 155.516 480.563 156.131 481.162 156.635C481.77 157.132 482.797 157.587 484.245 158.002C485.7 158.417 486.836 158.877 487.652 159.382C488.476 159.878 489.084 160.46 489.476 161.127C489.875 161.795 490.075 162.58 490.075 163.483C490.075 164.924 489.523 166.079 488.42 166.95C487.316 167.813 485.841 168.244 483.993 168.244C482.793 168.244 481.674 168.012 480.634 167.548C479.595 167.076 478.791 166.433 478.223 165.62C477.664 164.806 477.383 163.882 477.383 162.849H479.699C479.699 163.923 480.087 164.773 480.862 165.4C481.646 166.018 482.689 166.328 483.993 166.328C485.209 166.328 486.141 166.075 486.788 165.571C487.436 165.066 487.76 164.379 487.76 163.508C487.76 162.637 487.46 161.966 486.86 161.494C486.26 161.014 485.173 160.542 483.597 160.078ZM498.185 160.078C496.21 159.5 494.77 158.792 493.866 157.954C492.971 157.107 492.522 156.066 492.522 154.829C492.522 153.429 493.071 152.273 494.166 151.362C495.27 150.442 496.701 149.982 498.461 149.982C499.66 149.982 500.728 150.218 501.664 150.69C502.607 151.162 503.335 151.813 503.847 152.644C504.367 153.474 504.627 154.381 504.627 155.366H502.311C502.311 154.292 501.975 153.449 501.304 152.839C500.632 152.22 499.684 151.911 498.461 151.911C497.325 151.911 496.438 152.167 495.798 152.68C495.166 153.185 494.849 153.889 494.849 154.792C494.849 155.516 495.15 156.131 495.75 156.635C496.357 157.132 497.385 157.587 498.832 158.002C500.288 158.417 501.424 158.877 502.24 159.382C503.063 159.878 503.671 160.46 504.063 161.127C504.462 161.795 504.663 162.58 504.663 163.483C504.663 164.924 504.111 166.079 503.007 166.95C501.904 167.813 500.428 168.244 498.581 168.244C497.381 168.244 496.262 168.012 495.222 167.548C494.182 167.076 493.378 166.433 492.81 165.62C492.25 164.806 491.971 163.882 491.971 162.849H494.286C494.286 163.923 494.674 164.773 495.45 165.4C496.233 166.018 497.277 166.328 498.581 166.328C499.797 166.328 500.728 166.075 501.376 165.571C502.023 165.066 502.348 164.379 502.348 163.508C502.348 162.637 502.048 161.966 501.448 161.494C500.848 161.014 499.76 160.542 498.185 160.078Z" fill="#EA4949"/>
<path d="M649.582 112H623.048V136H649.582V112Z" fill="#C4C4C4"/>
<path d="M780.756 103.694L754.234 102.908L753.548 126.898L780.07 127.684L780.756 103.694Z" fill="#C4C4C4"/>
<path d="M746.563 107.786L720.041 107L719.355 130.99L745.877 131.776L746.563 107.786Z" fill="#C4C4C4"/>
<path d="M712.168 108.786L685.646 108L684.959 131.99L711.482 132.776L712.168 108.786Z" fill="#C4C4C4"/>
<path d="M710.492 142L634.841 143.696L636.074 200.682L711.726 198.986L710.492 142Z" fill="#C4C4C4"/>
<path d="M753.75 142H723.286V199H753.75V142Z" fill="#C4C4C4"/>
<path d="M787.157 205L639.754 206.368L640.023 236.367L787.426 234.998L787.157 205Z" fill="#C4C4C4"/>
</svg>
